<svg xmlns="http://www.w3.org/2000/svg" xmlns:xlink="http://www.w3.org/1999/xlink" width="60" height="54" viewBox="0 0 60 54"><defs><style>.a,.f,.i{fill:#fff;}.a{stroke:#707070;}.b{clip-path:url(#a);}.c{fill:url(#b);}.d{fill:url(#c);}.e{fill:url(#d);}.g{fill:url(#j);}.h{fill:url(#r);}.i{opacity:0.45;}.j{fill:url(#ad);}.k,.n{fill:none;}.l{fill:url(#am);}.m{fill:url(#aq);}.n{stroke:#bde9f5;}.o{fill:url(#au);}.p{fill:url(#ba);}.q{fill:url(#bb);}.r{fill:url(#bi);}.s{fill:url(#bo);}.t{fill:url(#bp);}.u{filter:url(#bt);}.v{filter:url(#bq);}.w{filter:url(#bl);}.x{filter:url(#bj);}.y{filter:url(#bf);}.z{filter:url(#bc);}.aa{filter:url(#ax);}.ab{filter:url(#av);}.ac{filter:url(#ar);}.ad{filter:url(#an);}.ae{filter:url(#aj);}.af{filter:url(#ag);}.ag{filter:url(#ae);}.ah{filter:url(#aa);}.ai{filter:url(#y);}.aj{filter:url(#v);}.ak{filter:url(#s);}.al{filter:url(#o);}.am{filter:url(#k);}.an{filter:url(#g);}.ao{filter:url(#e);}</style><clipPath id="a"><rect class="a" width="60" height="54" transform="translate(0 0)"/></clipPath><radialGradient id="b" cx="0.29" cy="0.292" r="0.594" gradientTransform="matrix(0.349, 0.937, -0.606, 0.226, 0.55, -0.487)" gradientUnits="objectBoundingBox"><stop offset="0" stop-color="#8aaeff"/><stop offset="1" stop-color="#2d6af6"/></radialGradient><radialGradient id="c" cx="0.673" cy="0.185" r="0.594" xlink:href="#b"/><radialGradient id="d" cx="0.521" cy="0.085" r="1.027" gradientTransform="matrix(-0.192, 0.981, -0.799, -0.157, 0.689, -0.414)" gradientUnits="objectBoundingBox"><stop offset="0" stop-color="#fff"/><stop offset="1" stop-color="#c7d1ef"/></radialGradient><filter id="e" x="-0.421" y="3.464" width="60.57" height="56.089" filterUnits="userSpaceOnUse"><feOffset dy="3" input="SourceAlpha"/><feGaussianBlur stdDeviation="3" result="f"/><feFlood flood-opacity="0.161"/><feComposite operator="in" in2="f"/><feComposite in="SourceGraphic"/></filter><filter id="g" x="-0.421" y="3.464" width="60.57" height="56.089" filterUnits="userSpaceOnUse"><feOffset dx="-3" dy="-3" input="SourceAlpha"/><feGaussianBlur stdDeviation="3" result="h"/><feFlood flood-color="#91a7d8" result="i"/><feComposite operator="out" in="SourceGraphic" in2="h"/><feComposite operator="in" in="i"/><feComposite operator="in" in2="SourceGraphic"/></filter><linearGradient id="j" x1="0.5" x2="0.5" y2="1" gradientUnits="objectBoundingBox"><stop offset="0" stop-color="#47a9ff"/><stop offset="1" stop-color="#7acaff"/></linearGradient><filter id="k" x="5.89" y="22.459" width="4.033" height="12.099" filterUnits="userSpaceOnUse"><feOffset dx="1" dy="-1" input="SourceAlpha"/><feGaussianBlur stdDeviation="0.5" result="l"/><feFlood flood-color="#001f72" flood-opacity="0.071" result="m"/><feComposite operator="out" in="SourceGraphic" in2="l"/><feComposite operator="in" in="m"/><feComposite operator="in" in2="SourceGraphic"/></filter><filter id="o" x="50.252" y="22.459" width="4.033" height="12.099" filterUnits="userSpaceOnUse"><feOffset dx="-1" dy="-1" input="SourceAlpha"/><feGaussianBlur stdDeviation="0.5" result="p"/><feFlood flood-color="#001f72" flood-opacity="0.161" result="q"/><feComposite operator="out" in="SourceGraphic" in2="p"/><feComposite operator="in" in="q"/><feComposite operator="in" in2="SourceGraphic"/></filter><linearGradient id="r" x1="0.5" x2="0.5" y2="1" gradientUnits="objectBoundingBox"><stop offset="0" stop-color="#5660ff"/><stop offset="1" stop-color="#080fa3"/></linearGradient><filter id="s" x="7.234" y="4.048" width="45.707" height="39.326" filterUnits="userSpaceOnUse"><feOffset dx="-2" dy="-2" input="SourceAlpha"/><feGaussianBlur stdDeviation="1" result="t"/><feFlood flood-opacity="0.141" result="u"/><feComposite operator="out" in="SourceGraphic" in2="t"/><feComposite operator="in" in="u"/><feComposite operator="in" in2="SourceGraphic"/></filter><filter id="v" x="7.234" y="4.048" width="45.707" height="39.326" filterUnits="userSpaceOnUse"><feOffset dx="1" dy="1" input="SourceAlpha"/><feGaussianBlur stdDeviation="0.5" result="w"/><feFlood flood-color="#7ba3ff" flood-opacity="0.69" result="x"/><feComposite operator="out" in="SourceGraphic" in2="w"/><feComposite operator="in" in="x"/><feComposite operator="in" in2="SourceGraphic"/></filter><filter id="y" x="12.352" y="17.27" width="33.471" height="22.716" filterUnits="userSpaceOnUse"><feOffset dx="-1" dy="-1" input="SourceAlpha"/><feGaussianBlur stdDeviation="0.5" result="z"/><feFlood flood-color="#041e5b" flood-opacity="0.349"/><feComposite operator="in" in2="z"/></filter><filter id="aa" x="12.352" y="17.27" width="33.471" height="22.716" filterUnits="userSpaceOnUse"><feOffset dx="2" dy="2" input="SourceAlpha"/><feGaussianBlur stdDeviation="3" result="ab"/><feFlood flood-color="#aac4ff" result="ac"/><feComposite operator="out" in="SourceGraphic" in2="ab"/><feComposite operator="in" in="ac"/><feComposite operator="in" in2="SourceGraphic"/></filter><radialGradient id="ad" cx="0.272" cy="0.235" r="1.347" gradientTransform="matrix(-0.045, 0.999, -0.653, -0.03, 0.438, -0.03)" gradientUnits="objectBoundingBox"><stop offset="0" stop-color="#3175fd"/><stop offset="1" stop-color="#162cb0"/></radialGradient><filter id="ae" x="14.352" y="19.27" width="33.471" height="22.716" filterUnits="userSpaceOnUse"><feOffset dx="1" dy="1" input="SourceAlpha"/><feGaussianBlur stdDeviation="0.5" result="af"/><feFlood flood-color="#041e5b" flood-opacity="0.349"/><feComposite operator="in" in2="af"/><feComposite in="SourceGraphic"/></filter><filter id="ag" x="14.352" y="19.27" width="33.471" height="22.716" filterUnits="userSpaceOnUse"><feOffset dx="2" dy="2" input="SourceAlpha"/><feGaussianBlur stdDeviation="3" result="ah"/><feFlood flood-color="#aac4ff" result="ai"/><feComposite operator="out" in="SourceGraphic" in2="ah"/><feComposite operator="in" in="ai"/><feComposite operator="in" in2="SourceGraphic"/></filter><filter id="aj"><feOffset dx="-2" dy="-2" input="SourceAlpha"/><feGaussianBlur stdDeviation="3" result="ak"/><feFlood flood-color="#000510" flood-opacity="0.361" result="al"/><feComposite operator="out" in="SourceGraphic" in2="ak"/><feComposite operator="in" in="al"/><feComposite operator="in" in2="SourceGraphic"/></filter><radialGradient id="am" cx="0.426" cy="0.17" r="0.692" gradientTransform="matrix(-0.104, 0.995, 1.288, 0.135, 0.215, -0.259)" gradientUnits="objectBoundingBox"><stop offset="0" stop-color="#9fbdff"/><stop offset="1" stop-color="#1058ff"/></radialGradient><filter id="an"><feOffset dx="0.4" dy="-0.4" input="SourceAlpha"/><feGaussianBlur stdDeviation="0.2" result="ao"/><feFlood flood-opacity="0.161" result="ap"/><feComposite operator="out" in="SourceGraphic" in2="ao"/><feComposite operator="in" in="ap"/><feComposite operator="in" in2="SourceGraphic"/></filter><radialGradient id="aq" cx="0.426" cy="0.83" r="0.692" gradientTransform="matrix(-0.104, -0.995, 1.288, -0.135, -0.636, 1.348)" xlink:href="#am"/><filter id="ar"><feOffset dx="0.4" dy="-0.4" input="SourceAlpha"/><feGaussianBlur stdDeviation="0.2" result="as"/><feFlood flood-opacity="0.161" result="at"/><feComposite operator="out" in="SourceGraphic" in2="as"/><feComposite operator="in" in="at"/><feComposite operator="in" in2="SourceGraphic"/></filter><linearGradient id="au" x1="0.392" y1="0.381" x2="0.191" y2="0.5" gradientUnits="objectBoundingBox"><stop offset="0" stop-color="#fff"/><stop offset="1" stop-color="#d3daf2"/></linearGradient><filter id="av" x="13.441" y="2.346" width="8.98" height="13.192" filterUnits="userSpaceOnUse"><feOffset dx="-0.4" dy="0.4" input="SourceAlpha"/><feGaussianBlur stdDeviation="0.2" result="aw"/><feFlood flood-opacity="0.059"/><feComposite operator="in" in2="aw"/><feComposite in="SourceGraphic"/></filter><filter id="ax" x="13.441" y="2.346" width="8.98" height="13.192" filterUnits="userSpaceOnUse"><feOffset dx="0.4" dy="-0.4" input="SourceAlpha"/><feGaussianBlur stdDeviation="0.2" result="ay"/><feFlood flood-opacity="0.161" result="az"/><feComposite operator="out" in="SourceGraphic" in2="ay"/><feComposite operator="in" in="az"/><feComposite operator="in" in2="SourceGraphic"/></filter><linearGradient id="ba" x1="0.803" y1="0.946" x2="0.669" y2="0.778" gradientUnits="objectBoundingBox"><stop offset="0" stop-color="#004eff"/><stop offset="0.95" stop-color="#819ced"/><stop offset="1" stop-color="#fff"/></linearGradient><radialGradient id="bb" cx="0.673" cy="0.365" r="0.753" gradientTransform="matrix(-0.903, 0.43, -0.43, -0.903, 1.437, 0.404)" gradientUnits="objectBoundingBox"><stop offset="0" stop-color="#f1f5ff"/><stop offset="1" stop-color="#1146f8"/></radialGradient><filter id="bc"><feOffset dx="0.4" dy="-0.4" input="SourceAlpha"/><feGaussianBlur stdDeviation="0.2" result="bd"/><feFlood flood-opacity="0.161" result="be"/><feComposite operator="out" in="SourceGraphic" in2="bd"/><feComposite operator="in" in="be"/><feComposite operator="in" in2="SourceGraphic"/></filter><filter id="bf"><feOffset dx="-0.4" dy="0.4" input="SourceAlpha"/><feGaussianBlur stdDeviation="0.2" result="bg"/><feFlood flood-color="#fff" flood-opacity="0.412" result="bh"/><feComposite operator="out" in="SourceGraphic" in2="bg"/><feComposite operator="in" in="bh"/><feComposite operator="in" in2="SourceGraphic"/></filter><linearGradient id="bi" x1="0.392" y1="0.619" x2="0.191" y2="0.5" xlink:href="#au"/><filter id="bj" x="37.11" y="2.345" width="8.98" height="13.193" filterUnits="userSpaceOnUse"><feOffset dx="-0.4" dy="0.4" input="SourceAlpha"/><feGaussianBlur stdDeviation="0.2" result="bk"/><feFlood flood-opacity="0.059"/><feComposite operator="in" in2="bk"/><feComposite in="SourceGraphic"/></filter><filter id="bl" x="37.11" y="2.345" width="8.98" height="13.193" filterUnits="userSpaceOnUse"><feOffset dx="0.4" dy="-0.4" input="SourceAlpha"/><feGaussianBlur stdDeviation="0.2" result="bm"/><feFlood flood-opacity="0.161" result="bn"/><feComposite operator="out" in="SourceGraphic" in2="bm"/><feComposite operator="in" in="bn"/><feComposite operator="in" in2="SourceGraphic"/></filter><linearGradient id="bo" x1="0.803" y1="0.054" x2="0.669" y2="0.222" xlink:href="#ba"/><radialGradient id="bp" cx="0.673" cy="0.635" r="0.753" gradientTransform="matrix(-0.903, -0.43, -0.43, 0.903, 1.553, 0.351)" xlink:href="#bb"/><filter id="bq"><feOffset dx="0.4" dy="-0.4" input="SourceAlpha"/><feGaussianBlur stdDeviation="0.2" result="br"/><feFlood flood-opacity="0.161" result="bs"/><feComposite operator="out" in="SourceGraphic" in2="br"/><feComposite operator="in" in="bs"/><feComposite operator="in" in2="SourceGraphic"/></filter><filter id="bt"><feOffset dx="-0.4" dy="0.4" input="SourceAlpha"/><feGaussianBlur stdDeviation="0.2" result="bu"/><feFlood flood-color="#fff" flood-opacity="0.412" result="bv"/><feComposite operator="out" in="SourceGraphic" in2="bu"/><feComposite operator="in" in="bv"/><feComposite operator="in" in2="SourceGraphic"/></filter></defs><g transform="translate(0.276 0)"><g class="b" transform="translate(-0.276 0)"><g transform="translate(0.165 4.048)"><circle class="c" cx="3.585" cy="3.585" r="3.585" transform="translate(2.588 21.099)"/><circle class="d" cx="3.585" cy="3.585" r="3.585" transform="translate(49.639 21.099)"/><g data-type="innerShadowGroup"><g class="ao" transform="matrix(1, 0, 0, 1, -0.17, -4.05)"><rect class="e" width="42.57" height="38.089" rx="19.044" transform="translate(8.58 9.46)"/></g><g class="an" transform="matrix(1, 0, 0, 1, -0.17, -4.05)"><rect class="f" width="42.57" height="38.089" rx="19.044" transform="translate(8.58 9.46)"/></g></g><g data-type="innerShadowGroup"><path class="g" d="M3.585,12.1A3.589,3.589,0,0,1,0,8.514V3.585A3.589,3.589,0,0,1,3.585,0a3.635,3.635,0,0,1,.448.028V12.071A3.636,3.636,0,0,1,3.585,12.1Z" transform="translate(5.725 18.411)"/><g class="am" transform="matrix(1, 0, 0, 1, -0.17, -4.05)"><path class="f" d="M3.585,12.1A3.589,3.589,0,0,1,0,8.514V3.585A3.589,3.589,0,0,1,3.585,0a3.635,3.635,0,0,1,.448.028V12.071A3.636,3.636,0,0,1,3.585,12.1Z" transform="translate(5.89 22.46)"/></g></g><g data-type="innerShadowGroup"><path class="g" d="M3.585,12.1A3.589,3.589,0,0,1,0,8.514V3.585A3.589,3.589,0,0,1,3.585,0a3.635,3.635,0,0,1,.448.028V12.071A3.636,3.636,0,0,1,3.585,12.1Z" transform="translate(54.12 30.51) rotate(180)"/><g class="al" transform="matrix(1, 0, 0, 1, -0.17, -4.05)"><path class="f" d="M3.585,12.1A3.589,3.589,0,0,1,0,8.514V3.585A3.589,3.589,0,0,1,3.585,0a3.635,3.635,0,0,1,.448.028V12.071A3.636,3.636,0,0,1,3.585,12.1Z" transform="translate(54.28 34.56) rotate(180)"/></g></g><g data-type="innerShadowGroup"><path class="h" d="M12.628,39.321l-2.236-.157a1.792,1.792,0,0,1-1.542-1.13c-1.122-.209-4.442-.932-6.2-2.428A5.963,5.963,0,0,1,.722,31.768,3.567,3.567,0,0,1,0,29.614V19.307A3.583,3.583,0,0,1,1.493,16.4,19.573,19.573,0,0,1,2.768,12.56a20.5,20.5,0,0,1,4.7-6.547,21.94,21.94,0,0,1,6.954-4.4,23.234,23.234,0,0,1,17,0,21.94,21.94,0,0,1,6.954,4.4,20.5,20.5,0,0,1,4.7,6.547,19.563,19.563,0,0,1,1.3,3.969,3.58,3.58,0,0,1,1.322,2.779V29.614A3.589,3.589,0,0,1,42.122,33.2a3.722,3.722,0,0,1-.448-.028V15.75a3.61,3.61,0,0,1,.448-.028q.107,0,.211.006C40.007,7.655,32.02,1.792,22.925,1.792S5.845,7.652,3.517,15.723h.068a3.722,3.722,0,0,1,.448.028V33.17a3.61,3.61,0,0,1-.448.028,3.565,3.565,0,0,1-1.292-.241,4.75,4.75,0,0,0,1.3,1.654,13.566,13.566,0,0,0,5.249,2.139,1.791,1.791,0,0,1,1.8-1.162l2.236.156a1.793,1.793,0,0,1-.124,3.581C12.712,39.326,12.67,39.324,12.628,39.321Z" transform="translate(7.069)"/><g class="ak" transform="matrix(1, 0, 0, 1, -0.17, -4.05)"><path class="f" d="M12.628,39.321l-2.236-.157a1.792,1.792,0,0,1-1.542-1.13c-1.122-.209-4.442-.932-6.2-2.428A5.963,5.963,0,0,1,.722,31.768,3.567,3.567,0,0,1,0,29.614V19.307A3.583,3.583,0,0,1,1.493,16.4,19.573,19.573,0,0,1,2.768,12.56a20.5,20.5,0,0,1,4.7-6.547,21.94,21.94,0,0,1,6.954-4.4,23.234,23.234,0,0,1,17,0,21.94,21.94,0,0,1,6.954,4.4,20.5,20.5,0,0,1,4.7,6.547,19.563,19.563,0,0,1,1.3,3.969,3.58,3.58,0,0,1,1.322,2.779V29.614A3.589,3.589,0,0,1,42.122,33.2a3.722,3.722,0,0,1-.448-.028V15.75a3.61,3.61,0,0,1,.448-.028q.107,0,.211.006C40.007,7.655,32.02,1.792,22.925,1.792S5.845,7.652,3.517,15.723h.068a3.722,3.722,0,0,1,.448.028V33.17a3.61,3.61,0,0,1-.448.028,3.565,3.565,0,0,1-1.292-.241,4.75,4.75,0,0,0,1.3,1.654,13.566,13.566,0,0,0,5.249,2.139,1.791,1.791,0,0,1,1.8-1.162l2.236.156a1.793,1.793,0,0,1-.124,3.581C12.712,39.326,12.67,39.324,12.628,39.321Z" transform="translate(7.23 4.05)"/></g></g><g class="aj" transform="matrix(1, 0, 0, 1, -0.17, -4.05)"><path class="f" d="M12.628,39.321l-2.236-.157a1.792,1.792,0,0,1-1.542-1.13c-1.122-.209-4.442-.932-6.2-2.428A5.963,5.963,0,0,1,.722,31.768,3.567,3.567,0,0,1,0,29.614V19.307A3.583,3.583,0,0,1,1.493,16.4,19.573,19.573,0,0,1,2.768,12.56a20.5,20.5,0,0,1,4.7-6.547,21.94,21.94,0,0,1,6.954-4.4,23.234,23.234,0,0,1,17,0,21.94,21.94,0,0,1,6.954,4.4,20.5,20.5,0,0,1,4.7,6.547,19.563,19.563,0,0,1,1.3,3.969,3.58,3.58,0,0,1,1.322,2.779V29.614A3.589,3.589,0,0,1,42.122,33.2a3.722,3.722,0,0,1-.448-.028V15.75a3.61,3.61,0,0,1,.448-.028q.107,0,.211.006C40.007,7.655,32.02,1.792,22.925,1.792S5.845,7.652,3.517,15.723h.068a3.722,3.722,0,0,1,.448.028V33.17a3.61,3.61,0,0,1-.448.028,3.565,3.565,0,0,1-1.292-.241,4.75,4.75,0,0,0,1.3,1.654,13.566,13.566,0,0,0,5.249,2.139,1.791,1.791,0,0,1,1.8-1.162l2.236.156a1.793,1.793,0,0,1-.124,3.581C12.712,39.326,12.67,39.324,12.628,39.321Z" transform="translate(7.23 4.05)"/></g><g data-type="innerShadowGroup"><g class="ai" transform="matrix(1, 0, 0, 1, -0.17, -4.05)"><rect class="i" width="30.471" height="19.716" rx="9.858" transform="translate(14.85 19.77)"/></g><g class="ah" transform="matrix(1, 0, 0, 1, -0.17, -4.05)"><rect class="i" width="30.471" height="19.716" rx="9.858" transform="translate(14.85 19.77)"/></g></g><g data-type="innerShadowGroup"><g class="ag" transform="matrix(1, 0, 0, 1, -0.17, -4.05)"><rect class="j" width="30.471" height="19.716" rx="9.858" transform="translate(14.85 19.77)"/></g><g class="af" transform="matrix(1, 0, 0, 1, -0.17, -4.05)"><rect class="f" width="30.471" height="19.716" rx="9.858" transform="translate(14.85 19.77)"/></g></g><g class="ae" transform="matrix(1, 0, 0, 1, -0.17, -4.05)"><rect class="f" width="30.471" height="19.716" rx="9.858" transform="translate(14.85 19.8)"/></g><path class="k" d="M23.525,38.088H19.044A19.044,19.044,0,0,1,5.578,5.578,18.919,18.919,0,0,1,19.044,0h4.481A19.044,19.044,0,0,1,36.991,32.51,18.92,18.92,0,0,1,23.525,38.088ZM16.132,10.306a9.858,9.858,0,1,0,0,19.716H26.886a9.858,9.858,0,1,0,0-19.716Z" transform="translate(8.413 5.416)"/><g data-type="innerShadowGroup"><path class="l" d="M2.648,10.13a.9.9,0,0,1,.466-.788A17.577,17.577,0,0,1,.363,4.464C-.238,2.223-.076.233.724.019S2.66,1.447,3.26,3.688a20.712,20.712,0,0,1,.3,5.543.9.9,0,1,1-.909.9Z" transform="translate(0 8.642)"/><g class="ad" transform="matrix(1, 0, 0, 1, -0.17, -4.05)"><path class="f" d="M2.648,10.13a.9.9,0,0,1,.466-.788A17.577,17.577,0,0,1,.363,4.464C-.238,2.223-.076.233.724.019S2.66,1.447,3.26,3.688a20.712,20.712,0,0,1,.3,5.543.9.9,0,1,1-.909.9Z" transform="translate(0.17 12.69)"/></g></g><g data-type="innerShadowGroup"><path class="m" d="M2.648.9a.9.9,0,0,0,.466.788A17.577,17.577,0,0,0,.363,6.566c-.6,2.241-.438,4.231.362,4.445S2.66,9.584,3.26,7.343a20.712,20.712,0,0,0,.3-5.543A.9.9,0,1,0,2.648.9Z" transform="translate(59.396 19.672) rotate(180)"/><g class="ac" transform="matrix(1, 0, 0, 1, -0.17, -4.05)"><path class="f" d="M2.648.9a.9.9,0,0,0,.466.788A17.577,17.577,0,0,0,.363,6.566c-.6,2.241-.438,4.231.362,4.445S2.66,9.584,3.26,7.343a20.712,20.712,0,0,0,.3-5.543A.9.9,0,1,0,2.648.9Z" transform="translate(59.56 23.72) rotate(180)"/></g></g><path class="n" d="M29.377,39.661h4.412l1.177-4.236L36.5,41.9l1.765-3.589L39.849,41.9l1.235-5.354,1.353,4.236,1.588-1.118h4.648" transform="translate(-9.103 -13.05)"/></g><g transform="translate(12.31 -0.138)"><g data-type="innerShadowGroup"><g class="ab" transform="matrix(1, 0, 0, 1, -12.31, 0.14)"><path class="o" d="M4.018,11.852a.346.346,0,0,1,.069-.331.9.9,0,0,1,.067-1.566l.356-.182L0,.526,1.078,0l4.5,9.228L6.025,9a.9.9,0,0,1,1.211.393.916.916,0,0,1,.1.413c.22-.01.374.034.427.138.15.3-.565.962-1.6,1.489a4.516,4.516,0,0,1-1.772.559C4.2,11.992,4.066,11.947,4.018,11.852Z" transform="translate(14.44 2.55)"/></g><g class="aa" transform="matrix(1, 0, 0, 1, -12.31, 0.14)"><path class="f" d="M4.018,11.852a.346.346,0,0,1,.069-.331.9.9,0,0,1,.067-1.566l.356-.182L0,.526,1.078,0l4.5,9.228L6.025,9a.9.9,0,0,1,1.211.393.916.916,0,0,1,.1.413c.22-.01.374.034.427.138.15.3-.565.962-1.6,1.489a4.516,4.516,0,0,1-1.772.559C4.2,11.992,4.066,11.947,4.018,11.852Z" transform="translate(14.44 2.55)"/></g></g><path class="p" d="M4.018,11.852a.346.346,0,0,1,.069-.331.9.9,0,0,1,.067-1.566l.356-.182L0,.526,1.078,0l4.5,9.228L6.025,9a.9.9,0,0,1,1.211.393.916.916,0,0,1,.1.413c.22-.01.374.034.427.138.15.3-.565.962-1.6,1.489a4.516,4.516,0,0,1-1.772.559C4.2,11.992,4.066,11.947,4.018,11.852Z" transform="translate(2.131 2.683)"/><g data-type="innerShadowGroup"><path class="q" d="M1.8,0A1.8,1.8,0,1,1,0,1.8,1.8,1.8,0,0,1,1.8,0Z" transform="matrix(0.899, -0.438, 0.438, 0.899, 0, 1.578)"/><g class="z" transform="matrix(1, 0, 0, 1, -12.31, 0.14)"><path class="f" d="M1.8,0A1.8,1.8,0,1,1,0,1.8,1.8,1.8,0,0,1,1.8,0Z" transform="matrix(0.9, -0.44, 0.44, 0.9, 12.31, 1.44)"/></g></g><g class="y" transform="matrix(1, 0, 0, 1, -12.31, 0.14)"><path class="f" d="M1.8,0A1.8,1.8,0,1,1,0,1.8,1.8,1.8,0,0,1,1.8,0Z" transform="matrix(0.9, -0.44, 0.44, 0.9, 12.31, 1.44)"/></g></g><g transform="translate(38.11 -0.138)"><g data-type="innerShadowGroup"><g class="x" transform="matrix(1, 0, 0, 1, -38.11, 0.14)"><path class="r" d="M0,11.466,4.51,2.219l-.356-.182A.9.9,0,0,1,3.76.827.891.891,0,0,1,4.088.471.344.344,0,0,1,4.018.14c.15-.3,1.11-.107,2.143.419s1.75,1.193,1.6,1.488c-.053.1-.206.148-.427.139a.9.9,0,0,1-1.309.806l-.444-.226-4.5,9.228Z" transform="translate(45.89 14.54) rotate(180)"/></g><g class="w" transform="matrix(1, 0, 0, 1, -38.11, 0.14)"><path class="f" d="M0,11.466,4.51,2.219l-.356-.182A.9.9,0,0,1,3.76.827.891.891,0,0,1,4.088.471.344.344,0,0,1,4.018.14c.15-.3,1.11-.107,2.143.419s1.75,1.193,1.6,1.488c-.053.1-.206.148-.427.139a.9.9,0,0,1-1.309.806l-.444-.226-4.5,9.228Z" transform="translate(45.89 14.54) rotate(180)"/></g></g><path class="s" d="M0,11.466,4.51,2.219l-.356-.182A.9.9,0,0,1,3.76.827.891.891,0,0,1,4.088.471.344.344,0,0,1,4.018.14c.15-.3,1.11-.107,2.143.419s1.75,1.193,1.6,1.488c-.053.1-.206.148-.427.139a.9.9,0,0,1-1.309.806l-.444-.226-4.5,9.228Z" transform="translate(7.78 14.675) rotate(180)"/><g data-type="innerShadowGroup"><path class="t" d="M1.8,3.6A1.8,1.8,0,1,0,0,1.8,1.8,1.8,0,0,0,1.8,3.6Z" transform="matrix(-0.899, -0.438, 0.438, -0.899, 8.333, 4.814)"/><g class="v" transform="matrix(1, 0, 0, 1, -38.11, 0.14)"><path class="f" d="M1.8,3.6A1.8,1.8,0,1,0,0,1.8,1.8,1.8,0,0,0,1.8,3.6Z" transform="matrix(-0.9, -0.44, 0.44, -0.9, 46.44, 4.68)"/></g></g><g class="u" transform="matrix(1, 0, 0, 1, -38.11, 0.14)"><path class="f" d="M1.8,3.6A1.8,1.8,0,1,0,0,1.8,1.8,1.8,0,0,0,1.8,3.6Z" transform="matrix(-0.9, -0.44, 0.44, -0.9, 46.44, 4.68)"/></g></g></g></g></svg>