<svg xmlns="http://www.w3.org/2000/svg" xmlns:xlink="http://www.w3.org/1999/xlink" width="100" height="85" viewBox="0 0 100 85"><defs><style>.a,.f,.i{fill:#fff;}.a{stroke:#707070;}.b{clip-path:url(#a);}.c{fill:url(#b);}.d{fill:url(#c);}.e{fill:url(#d);}.g{fill:url(#j);}.h{fill:url(#r);}.i{opacity:0.45;}.j{fill:url(#ad);}.k{fill:url(#am);}.l{fill:none;}.m{fill:url(#ao);}.n{fill:url(#as);}.o{fill:url(#aw);}.p{fill:url(#bc);}.q{fill:url(#bd);}.r{fill:url(#bk);}.s{fill:url(#bq);}.t{fill:url(#br);}.u{filter:url(#bv);}.v{filter:url(#bs);}.w{filter:url(#bn);}.x{filter:url(#bl);}.y{filter:url(#bh);}.z{filter:url(#be);}.aa{filter:url(#az);}.ab{filter:url(#ax);}.ac{filter:url(#at);}.ad{filter:url(#ap);}.ae{filter:url(#aj);}.af{filter:url(#ag);}.ag{filter:url(#ae);}.ah{filter:url(#aa);}.ai{filter:url(#y);}.aj{filter:url(#v);}.ak{filter:url(#s);}.al{filter:url(#o);}.am{filter:url(#k);}.an{filter:url(#g);}.ao{filter:url(#e);}</style><clipPath id="a"><rect class="a" width="100" height="85" transform="translate(0 -11.746)"/></clipPath><radialGradient id="b" cx="0.29" cy="0.292" r="0.594" gradientTransform="matrix(0.349, 0.937, -0.606, 0.226, 0.55, -0.487)" gradientUnits="objectBoundingBox"><stop offset="0" stop-color="#8aaeff"/><stop offset="1" stop-color="#2d6af6"/></radialGradient><radialGradient id="c" cx="0.673" cy="0.185" r="0.594" xlink:href="#b"/><radialGradient id="d" cx="0.521" cy="0.085" r="1.027" gradientTransform="matrix(-0.192, 0.981, -0.799, -0.157, 0.689, -0.414)" gradientUnits="objectBoundingBox"><stop offset="0" stop-color="#fff"/><stop offset="1" stop-color="#c7d1ef"/></radialGradient><filter id="e" x="5.022" y="9.773" width="88.949" height="81.481" filterUnits="userSpaceOnUse"><feOffset dy="3" input="SourceAlpha"/><feGaussianBlur stdDeviation="3" result="f"/><feFlood flood-opacity="0.161"/><feComposite operator="in" in2="f"/><feComposite in="SourceGraphic"/></filter><filter id="g" x="5.022" y="9.773" width="88.949" height="81.481" filterUnits="userSpaceOnUse"><feOffset dx="-3" dy="-3" input="SourceAlpha"/><feGaussianBlur stdDeviation="3" result="h"/><feFlood flood-color="#91a7d8" result="i"/><feComposite operator="out" in="SourceGraphic" in2="h"/><feComposite operator="in" in="i"/><feComposite operator="in" in2="SourceGraphic"/></filter><linearGradient id="j" x1="0.5" x2="0.5" y2="1" gradientUnits="objectBoundingBox"><stop offset="0" stop-color="#47a9ff"/><stop offset="1" stop-color="#7acaff"/></linearGradient><filter id="k" x="9.541" y="37.431" width="6.721" height="20.165" filterUnits="userSpaceOnUse"><feOffset dx="1" dy="-1" input="SourceAlpha"/><feGaussianBlur stdDeviation="0.5" result="l"/><feFlood flood-color="#001f72" flood-opacity="0.071" result="m"/><feComposite operator="out" in="SourceGraphic" in2="l"/><feComposite operator="in" in="m"/><feComposite operator="in" in2="SourceGraphic"/></filter><filter id="o" x="83.478" y="37.431" width="6.721" height="20.165" filterUnits="userSpaceOnUse"><feOffset dx="-1" dy="-1" input="SourceAlpha"/><feGaussianBlur stdDeviation="0.5" result="p"/><feFlood flood-color="#001f72" flood-opacity="0.161" result="q"/><feComposite operator="out" in="SourceGraphic" in2="p"/><feComposite operator="in" in="q"/><feComposite operator="in" in2="SourceGraphic"/></filter><linearGradient id="r" x1="0.5" x2="0.5" y2="1" gradientUnits="objectBoundingBox"><stop offset="0" stop-color="#5660ff"/><stop offset="1" stop-color="#080fa3"/></linearGradient><filter id="s" x="11.781" y="6.746" width="76.178" height="65.575" filterUnits="userSpaceOnUse"><feOffset dx="-2" dy="-2" input="SourceAlpha"/><feGaussianBlur stdDeviation="1" result="t"/><feFlood flood-opacity="0.141" result="u"/><feComposite operator="out" in="SourceGraphic" in2="t"/><feComposite operator="in" in="u"/><feComposite operator="in" in2="SourceGraphic"/></filter><filter id="v" x="11.781" y="6.746" width="76.178" height="65.575" filterUnits="userSpaceOnUse"><feOffset dx="1" dy="1" input="SourceAlpha"/><feGaussianBlur stdDeviation="0.5" result="w"/><feFlood flood-color="#7ba3ff" flood-opacity="0.69" result="x"/><feComposite operator="out" in="SourceGraphic" in2="w"/><feComposite operator="in" in="x"/><feComposite operator="in" in2="SourceGraphic"/></filter><filter id="y" x="21.978" y="30.45" width="53.785" height="35.861" filterUnits="userSpaceOnUse"><feOffset dx="-1" dy="-1" input="SourceAlpha"/><feGaussianBlur stdDeviation="0.5" result="z"/><feFlood flood-color="#041e5b" flood-opacity="0.349"/><feComposite operator="in" in2="z"/></filter><filter id="aa" x="21.978" y="30.45" width="53.785" height="35.861" filterUnits="userSpaceOnUse"><feOffset dx="2" dy="2" input="SourceAlpha"/><feGaussianBlur stdDeviation="3" result="ab"/><feFlood flood-color="#aac4ff" result="ac"/><feComposite operator="out" in="SourceGraphic" in2="ab"/><feComposite operator="in" in="ac"/><feComposite operator="in" in2="SourceGraphic"/></filter><radialGradient id="ad" cx="0.272" cy="0.235" r="1.347" gradientTransform="matrix(-0.045, 0.999, -0.653, -0.03, 0.438, -0.03)" gradientUnits="objectBoundingBox"><stop offset="0" stop-color="#3175fd"/><stop offset="1" stop-color="#162cb0"/></radialGradient><filter id="ae" x="23.978" y="32.45" width="53.785" height="35.861" filterUnits="userSpaceOnUse"><feOffset dx="1" dy="1" input="SourceAlpha"/><feGaussianBlur stdDeviation="0.5" result="af"/><feFlood flood-color="#041e5b" flood-opacity="0.349"/><feComposite operator="in" in2="af"/><feComposite in="SourceGraphic"/></filter><filter id="ag" x="23.978" y="32.45" width="53.785" height="35.861" filterUnits="userSpaceOnUse"><feOffset dx="2" dy="2" input="SourceAlpha"/><feGaussianBlur stdDeviation="3" result="ah"/><feFlood flood-color="#aac4ff" result="ai"/><feComposite operator="out" in="SourceGraphic" in2="ah"/><feComposite operator="in" in="ai"/><feComposite operator="in" in2="SourceGraphic"/></filter><filter id="aj"><feOffset dx="-2" dy="-2" input="SourceAlpha"/><feGaussianBlur stdDeviation="3" result="ak"/><feFlood flood-color="#000510" flood-opacity="0.361" result="al"/><feComposite operator="out" in="SourceGraphic" in2="ak"/><feComposite operator="in" in="al"/><feComposite operator="in" in2="SourceGraphic"/></filter><linearGradient id="am" x1="0.5" x2="0.5" y2="1" gradientUnits="objectBoundingBox"><stop offset="0" stop-color="#f9feff"/><stop offset="1" stop-color="#7ad6ff"/></linearGradient><radialGradient id="ao" cx="0.426" cy="0.17" r="0.692" gradientTransform="matrix(-0.104, 0.995, 1.288, 0.135, 0.215, -0.259)" gradientUnits="objectBoundingBox"><stop offset="0" stop-color="#9fbdff"/><stop offset="1" stop-color="#1058ff"/></radialGradient><filter id="ap"><feOffset dx="0.4" dy="-0.4" input="SourceAlpha"/><feGaussianBlur stdDeviation="0.2" result="aq"/><feFlood flood-opacity="0.161" result="ar"/><feComposite operator="out" in="SourceGraphic" in2="aq"/><feComposite operator="in" in="ar"/><feComposite operator="in" in2="SourceGraphic"/></filter><radialGradient id="as" cx="0.426" cy="0.83" r="0.692" gradientTransform="matrix(-0.104, -0.995, 1.288, -0.135, -0.636, 1.348)" xlink:href="#ao"/><filter id="at"><feOffset dx="0.4" dy="-0.4" input="SourceAlpha"/><feGaussianBlur stdDeviation="0.2" result="au"/><feFlood flood-opacity="0.161" result="av"/><feComposite operator="out" in="SourceGraphic" in2="au"/><feComposite operator="in" in="av"/><feComposite operator="in" in2="SourceGraphic"/></filter><linearGradient id="aw" x1="0.392" y1="0.381" x2="0.191" y2="0.5" gradientUnits="objectBoundingBox"><stop offset="0" stop-color="#fff"/><stop offset="1" stop-color="#d3daf2"/></linearGradient><filter id="ax" x="22.793" y="4.043" width="14.166" height="21.187" filterUnits="userSpaceOnUse"><feOffset dx="-0.4" dy="0.4" input="SourceAlpha"/><feGaussianBlur stdDeviation="0.2" result="ay"/><feFlood flood-opacity="0.059"/><feComposite operator="in" in2="ay"/><feComposite in="SourceGraphic"/></filter><filter id="az" x="22.793" y="4.043" width="14.166" height="21.187" filterUnits="userSpaceOnUse"><feOffset dx="0.4" dy="-0.4" input="SourceAlpha"/><feGaussianBlur stdDeviation="0.2" result="ba"/><feFlood flood-opacity="0.161" result="bb"/><feComposite operator="out" in="SourceGraphic" in2="ba"/><feComposite operator="in" in="bb"/><feComposite operator="in" in2="SourceGraphic"/></filter><linearGradient id="bc" x1="0.803" y1="0.946" x2="0.669" y2="0.778" gradientUnits="objectBoundingBox"><stop offset="0" stop-color="#004eff"/><stop offset="0.95" stop-color="#819ced"/><stop offset="1" stop-color="#fff"/></linearGradient><radialGradient id="bd" cx="0.673" cy="0.365" r="0.753" gradientTransform="matrix(-0.903, 0.43, -0.43, -0.903, 1.437, 0.404)" gradientUnits="objectBoundingBox"><stop offset="0" stop-color="#f1f5ff"/><stop offset="1" stop-color="#1146f8"/></radialGradient><filter id="be"><feOffset dx="0.4" dy="-0.4" input="SourceAlpha"/><feGaussianBlur stdDeviation="0.2" result="bf"/><feFlood flood-opacity="0.161" result="bg"/><feComposite operator="out" in="SourceGraphic" in2="bf"/><feComposite operator="in" in="bg"/><feComposite operator="in" in2="SourceGraphic"/></filter><filter id="bh"><feOffset dx="-0.4" dy="0.4" input="SourceAlpha"/><feGaussianBlur stdDeviation="0.2" result="bi"/><feFlood flood-color="#fff" flood-opacity="0.412" result="bj"/><feComposite operator="out" in="SourceGraphic" in2="bi"/><feComposite operator="in" in="bj"/><feComposite operator="in" in2="SourceGraphic"/></filter><linearGradient id="bk" x1="0.392" y1="0.619" x2="0.191" y2="0.5" xlink:href="#aw"/><filter id="bl" x="62.241" y="4.042" width="14.166" height="21.187" filterUnits="userSpaceOnUse"><feOffset dx="-0.4" dy="0.4" input="SourceAlpha"/><feGaussianBlur stdDeviation="0.2" result="bm"/><feFlood flood-opacity="0.059"/><feComposite operator="in" in2="bm"/><feComposite in="SourceGraphic"/></filter><filter id="bn" x="62.241" y="4.042" width="14.166" height="21.187" filterUnits="userSpaceOnUse"><feOffset dx="0.4" dy="-0.4" input="SourceAlpha"/><feGaussianBlur stdDeviation="0.2" result="bo"/><feFlood flood-opacity="0.161" result="bp"/><feComposite operator="out" in="SourceGraphic" in2="bo"/><feComposite operator="in" in="bp"/><feComposite operator="in" in2="SourceGraphic"/></filter><linearGradient id="bq" x1="0.803" y1="0.054" x2="0.669" y2="0.222" xlink:href="#bc"/><radialGradient id="br" cx="0.673" cy="0.635" r="0.753" gradientTransform="matrix(-0.903, -0.43, -0.43, 0.903, 1.553, 0.351)" xlink:href="#bd"/><filter id="bs"><feOffset dx="0.4" dy="-0.4" input="SourceAlpha"/><feGaussianBlur stdDeviation="0.2" result="bt"/><feFlood flood-opacity="0.161" result="bu"/><feComposite operator="out" in="SourceGraphic" in2="bt"/><feComposite operator="in" in="bu"/><feComposite operator="in" in2="SourceGraphic"/></filter><filter id="bv"><feOffset dx="-0.4" dy="0.4" input="SourceAlpha"/><feGaussianBlur stdDeviation="0.2" result="bw"/><feFlood flood-color="#fff" flood-opacity="0.412" result="bx"/><feComposite operator="out" in="SourceGraphic" in2="bw"/><feComposite operator="in" in="bx"/><feComposite operator="in" in2="SourceGraphic"/></filter></defs><g class="b" transform="translate(0 11.746)"><g transform="translate(0 -5)"><circle class="c" cx="5.975" cy="5.975" r="5.975" transform="translate(4.313 35.166)"/><circle class="d" cx="5.975" cy="5.975" r="5.975" transform="translate(82.731 35.166)"/><g data-type="innerShadowGroup"><g class="ao" transform="matrix(1, 0, 0, 1, 0, -6.75)"><rect class="e" width="70.949" height="63.481" rx="31.74" transform="translate(14.02 15.77)"/></g><g class="an" transform="matrix(1, 0, 0, 1, 0, -6.75)"><rect class="f" width="70.949" height="63.481" rx="31.74" transform="translate(14.02 15.77)"/></g></g><g data-type="innerShadowGroup"><path class="g" d="M6.721,20.165H4a4,4,0,0,1-4-4V4A4,4,0,0,1,4,0H6.721V20.163Z" transform="translate(9.541 30.685)"/><g class="am" transform="matrix(1, 0, 0, 1, 0, -6.75)"><path class="f" d="M6.721,20.165H4a4,4,0,0,1-4-4V4A4,4,0,0,1,4,0H6.721V20.163Z" transform="translate(9.54 37.43)"/></g></g><g data-type="innerShadowGroup"><path class="g" d="M5.974,20.165A5.981,5.981,0,0,1,0,14.189V5.975A5.981,5.981,0,0,1,5.974,0a6.059,6.059,0,0,1,.747.046V20.118A6.058,6.058,0,0,1,5.974,20.165Z" transform="translate(90.199 50.849) rotate(180)"/><g class="al" transform="matrix(1, 0, 0, 1, 0, -6.75)"><path class="f" d="M5.974,20.165A5.981,5.981,0,0,1,0,14.189V5.975A5.981,5.981,0,0,1,5.974,0a6.059,6.059,0,0,1,.747.046V20.118A6.058,6.058,0,0,1,5.974,20.165Z" transform="translate(90.2 57.6) rotate(180)"/></g></g><g data-type="innerShadowGroup"><path class="h" d="M21.533,65.569l-4.7-.328a2.5,2.5,0,0,1-2.249-1.88c-2.012-.385-7.32-1.591-10.172-4.016a9.937,9.937,0,0,1-3.211-6.4A5.948,5.948,0,0,1,0,49.355V32.179a5.972,5.972,0,0,1,2.488-4.849,32.692,32.692,0,0,1,2.124-6.4,34.182,34.182,0,0,1,7.836-10.912,36.576,36.576,0,0,1,11.59-7.336,38.728,38.728,0,0,1,28.336,0,36.576,36.576,0,0,1,11.59,7.336A34.176,34.176,0,0,1,71.8,20.933a32.663,32.663,0,0,1,2.173,6.615,5.966,5.966,0,0,1,2.2,4.631V49.356A5.982,5.982,0,0,1,70.2,55.33a6.061,6.061,0,0,1-.746-.046V26.249A6.115,6.115,0,0,1,70.2,26.2q.178,0,.354.01C66.679,12.76,53.368,2.987,38.208,2.987S9.741,12.755,5.862,26.2h.114a6.06,6.06,0,0,1,.746.047V55.284a6.116,6.116,0,0,1-.746.046,5.947,5.947,0,0,1-2.154-.4,7.9,7.9,0,0,0,2.161,2.757c2.361,1.921,6.221,3.013,8.654,3.545a2.5,2.5,0,0,1,2.614-1.95l4.7.329a2.5,2.5,0,0,1,2.319,2.668l-.068.973a2.5,2.5,0,0,1-2.491,2.326C21.65,65.575,21.592,65.573,21.533,65.569Z" transform="translate(11.781)"/><g class="ak" transform="matrix(1, 0, 0, 1, 0, -6.75)"><path class="f" d="M21.533,65.569l-4.7-.328a2.5,2.5,0,0,1-2.249-1.88c-2.012-.385-7.32-1.591-10.172-4.016a9.937,9.937,0,0,1-3.211-6.4A5.948,5.948,0,0,1,0,49.355V32.179a5.972,5.972,0,0,1,2.488-4.849,32.692,32.692,0,0,1,2.124-6.4,34.182,34.182,0,0,1,7.836-10.912,36.576,36.576,0,0,1,11.59-7.336,38.728,38.728,0,0,1,28.336,0,36.576,36.576,0,0,1,11.59,7.336A34.176,34.176,0,0,1,71.8,20.933a32.663,32.663,0,0,1,2.173,6.615,5.966,5.966,0,0,1,2.2,4.631V49.356A5.982,5.982,0,0,1,70.2,55.33a6.061,6.061,0,0,1-.746-.046V26.249A6.115,6.115,0,0,1,70.2,26.2q.178,0,.354.01C66.679,12.76,53.368,2.987,38.208,2.987S9.741,12.755,5.862,26.2h.114a6.06,6.06,0,0,1,.746.047V55.284a6.116,6.116,0,0,1-.746.046,5.947,5.947,0,0,1-2.154-.4,7.9,7.9,0,0,0,2.161,2.757c2.361,1.921,6.221,3.013,8.654,3.545a2.5,2.5,0,0,1,2.614-1.95l4.7.329a2.5,2.5,0,0,1,2.319,2.668l-.068.973a2.5,2.5,0,0,1-2.491,2.326C21.65,65.575,21.592,65.573,21.533,65.569Z" transform="translate(11.78 6.75)"/></g></g><g class="aj" transform="matrix(1, 0, 0, 1, 0, -6.75)"><path class="f" d="M21.533,65.569l-4.7-.328a2.5,2.5,0,0,1-2.249-1.88c-2.012-.385-7.32-1.591-10.172-4.016a9.937,9.937,0,0,1-3.211-6.4A5.948,5.948,0,0,1,0,49.355V32.179a5.972,5.972,0,0,1,2.488-4.849,32.692,32.692,0,0,1,2.124-6.4,34.182,34.182,0,0,1,7.836-10.912,36.576,36.576,0,0,1,11.59-7.336,38.728,38.728,0,0,1,28.336,0,36.576,36.576,0,0,1,11.59,7.336A34.176,34.176,0,0,1,71.8,20.933a32.663,32.663,0,0,1,2.173,6.615,5.966,5.966,0,0,1,2.2,4.631V49.356A5.982,5.982,0,0,1,70.2,55.33a6.061,6.061,0,0,1-.746-.046V26.249A6.115,6.115,0,0,1,70.2,26.2q.178,0,.354.01C66.679,12.76,53.368,2.987,38.208,2.987S9.741,12.755,5.862,26.2h.114a6.06,6.06,0,0,1,.746.047V55.284a6.116,6.116,0,0,1-.746.046,5.947,5.947,0,0,1-2.154-.4,7.9,7.9,0,0,0,2.161,2.757c2.361,1.921,6.221,3.013,8.654,3.545a2.5,2.5,0,0,1,2.614-1.95l4.7.329a2.5,2.5,0,0,1,2.319,2.668l-.068.973a2.5,2.5,0,0,1-2.491,2.326C21.65,65.575,21.592,65.573,21.533,65.569Z" transform="translate(11.78 6.75)"/></g><g data-type="innerShadowGroup"><g class="ai" transform="matrix(1, 0, 0, 1, 0, -6.75)"><rect class="i" width="50.785" height="32.861" rx="16.43" transform="translate(24.48 32.95)"/></g><g class="ah" transform="matrix(1, 0, 0, 1, 0, -6.75)"><rect class="i" width="50.785" height="32.861" rx="16.43" transform="translate(24.48 32.95)"/></g></g><g data-type="innerShadowGroup"><g class="ag" transform="matrix(1, 0, 0, 1, 0, -6.75)"><rect class="j" width="50.785" height="32.861" rx="16.43" transform="translate(24.48 32.95)"/></g><g class="af" transform="matrix(1, 0, 0, 1, 0, -6.75)"><rect class="f" width="50.785" height="32.861" rx="16.43" transform="translate(24.48 32.95)"/></g></g><g class="ae" transform="matrix(1, 0, 0, 1, 0, -6.75)"><rect class="f" width="50.785" height="32.861" rx="16.43" transform="translate(24.48 33)"/></g><ellipse class="k" cx="4.726" cy="7" rx="4.726" ry="7" transform="translate(36.111 35.166)"/><ellipse class="k" cx="4.726" cy="7" rx="4.726" ry="7" transform="translate(54.179 35.166)"/><path class="l" d="M39.208,63.481H31.74A31.749,31.749,0,0,1,19.386,2.494,31.542,31.542,0,0,1,31.74,0h7.468A31.749,31.749,0,0,1,51.563,60.986,31.542,31.542,0,0,1,39.208,63.481Zm-12.323-46.3a16.43,16.43,0,1,0,0,32.86H44.81a16.43,16.43,0,1,0,0-32.86Z" transform="translate(14.022 9.027)"/><g data-type="innerShadowGroup"><path class="m" d="M4.413,16.884a1.5,1.5,0,0,1,.776-1.313C3.952,13.925,1.358,10.251.6,7.44c-1-3.735-.731-7.052.6-7.409s3.226,2.38,4.226,6.115c.755,2.816.611,7.236.495,9.239a1.5,1.5,0,1,1-1.516,1.5Z" transform="translate(0 14.403)"/><g class="ad" transform="matrix(1, 0, 0, 1, 0, -6.75)"><path class="f" d="M4.413,16.884a1.5,1.5,0,0,1,.776-1.313C3.952,13.925,1.358,10.251.6,7.44c-1-3.735-.731-7.052.6-7.409s3.226,2.38,4.226,6.115c.755,2.816.611,7.236.495,9.239a1.5,1.5,0,1,1-1.516,1.5Z" transform="translate(0 21.15)"/></g></g><g data-type="innerShadowGroup"><path class="n" d="M4.413,1.5a1.5,1.5,0,0,0,.776,1.313C3.952,4.459,1.358,8.133.6,10.944c-1,3.735-.731,7.052.6,7.409s3.226-2.38,4.226-6.115C6.189,9.422,6.045,5,5.929,3A1.5,1.5,0,1,0,4.413,1.5Z" transform="translate(98.993 32.787) rotate(180)"/><g class="ac" transform="matrix(1, 0, 0, 1, 0, -6.75)"><path class="f" d="M4.413,1.5a1.5,1.5,0,0,0,.776,1.313C3.952,4.459,1.358,8.133.6,10.944c-1,3.735-.731,7.052.6,7.409s3.226-2.38,4.226-6.115C6.189,9.422,6.045,5,5.929,3A1.5,1.5,0,1,0,4.413,1.5Z" transform="translate(98.99 39.53) rotate(180)"/></g></g></g><g transform="translate(20.241 -11.976)"><g data-type="innerShadowGroup"><g class="ab" transform="matrix(1, 0, 0, 1, -20.24, 0.23)"><path class="o" d="M6.7,19.754a.577.577,0,0,1,.117-.553,1.5,1.5,0,0,1,.111-2.611l.594-.3L0,.877,1.8,0,9.3,15.38,10.04,15a1.5,1.5,0,0,1,2.181,1.343c.369-.015.624.059.712.231.25.492-.942,1.6-2.665,2.479a7.532,7.532,0,0,1-2.955.931C7,19.987,6.776,19.912,6.7,19.754Z" transform="translate(23.79 4.24)"/></g><g class="aa" transform="matrix(1, 0, 0, 1, -20.24, 0.23)"><path class="f" d="M6.7,19.754a.577.577,0,0,1,.117-.553,1.5,1.5,0,0,1,.111-2.611l.594-.3L0,.877,1.8,0,9.3,15.38,10.04,15a1.5,1.5,0,0,1,2.181,1.343c.369-.015.624.059.712.231.25.492-.942,1.6-2.665,2.479a7.532,7.532,0,0,1-2.955.931C7,19.987,6.776,19.912,6.7,19.754Z" transform="translate(23.79 4.24)"/></g></g><path class="p" d="M6.7,19.754a.577.577,0,0,1,.117-.553,1.5,1.5,0,0,1,.111-2.611l.594-.3L0,.877,1.8,0,9.3,15.38,10.04,15a1.5,1.5,0,0,1,2.181,1.343c.369-.015.624.059.712.231.25.492-.942,1.6-2.665,2.479a7.532,7.532,0,0,1-2.955.931C7,19.987,6.776,19.912,6.7,19.754Z" transform="translate(3.552 4.472)"/><g data-type="innerShadowGroup"><path class="q" d="M3,0A3,3,0,1,1,0,3,3,3,0,0,1,3,0Z" transform="matrix(0.899, -0.438, 0.438, 0.899, 0, 2.63)"/><g class="z" transform="matrix(1, 0, 0, 1, -20.24, 0.23)"><path class="f" d="M3,0A3,3,0,1,1,0,3,3,3,0,0,1,3,0Z" transform="matrix(0.9, -0.44, 0.44, 0.9, 20.24, 2.4)"/></g></g><g class="y" transform="matrix(1, 0, 0, 1, -20.24, 0.23)"><path class="f" d="M3,0A3,3,0,1,1,0,3,3,3,0,0,1,3,0Z" transform="matrix(0.9, -0.44, 0.44, 0.9, 20.24, 2.4)"/></g></g><g transform="translate(63.241 -11.976)"><g data-type="innerShadowGroup"><g class="x" transform="matrix(1, 0, 0, 1, -63.24, 0.23)"><path class="r" d="M0,19.111,7.516,3.7l-.594-.3A1.5,1.5,0,0,1,6.812.786.577.577,0,0,1,6.7.233c.251-.492,1.85-.179,3.573.7s2.915,1.987,2.665,2.479c-.088.173-.343.247-.712.231A1.5,1.5,0,0,1,10.04,4.985L9.3,4.607,1.8,19.987Z" transform="translate(76.21 24.23) rotate(180)"/></g><g class="w" transform="matrix(1, 0, 0, 1, -63.24, 0.23)"><path class="f" d="M0,19.111,7.516,3.7l-.594-.3A1.5,1.5,0,0,1,6.812.786.577.577,0,0,1,6.7.233c.251-.492,1.85-.179,3.573.7s2.915,1.987,2.665,2.479c-.088.173-.343.247-.712.231A1.5,1.5,0,0,1,10.04,4.985L9.3,4.607,1.8,19.987Z" transform="translate(76.21 24.23) rotate(180)"/></g></g><path class="s" d="M0,19.111,7.516,3.7l-.594-.3A1.5,1.5,0,0,1,6.812.786.577.577,0,0,1,6.7.233c.251-.492,1.85-.179,3.573.7s2.915,1.987,2.665,2.479c-.088.173-.343.247-.712.231A1.5,1.5,0,0,1,10.04,4.985L9.3,4.607,1.8,19.987Z" transform="translate(12.966 24.459) rotate(180)"/><g data-type="innerShadowGroup"><path class="t" d="M3,6A3,3,0,1,0,0,3,3,3,0,0,0,3,6Z" transform="matrix(-0.899, -0.438, 0.438, -0.899, 13.887, 8.023)"/><g class="v" transform="matrix(1, 0, 0, 1, -63.24, 0.23)"><path class="f" d="M3,6A3,3,0,1,0,0,3,3,3,0,0,0,3,6Z" transform="matrix(-0.9, -0.44, 0.44, -0.9, 77.13, 7.79)"/></g></g><g class="u" transform="matrix(1, 0, 0, 1, -63.24, 0.23)"><path class="f" d="M3,6A3,3,0,1,0,0,3,3,3,0,0,0,3,6Z" transform="matrix(-0.9, -0.44, 0.44, -0.9, 77.13, 7.79)"/></g></g></g></svg>