<svg xmlns="http://www.w3.org/2000/svg" width="42" height="42" viewBox="0 0 42 42"><defs><style>.a{fill:#f3f4f7;}.b{fill:#586a92;}.c{fill:#004eff;}</style></defs><g transform="translate(0)"><rect class="a" width="42" height="42" rx="8" transform="translate(0)"/><g transform="translate(9.089 5.451)"><path class="b" d="M3.393,30.79a3.34,3.34,0,0,1-2.428-1A3.575,3.575,0,0,1,0,27.284V3.507A3.573,3.573,0,0,1,.965,1,3.337,3.337,0,0,1,3.4,0H17.269a1.077,1.077,0,0,1,.892.446L25.44,7.971a.739.739,0,0,1,.348.413.666.666,0,0,1-.014.457V16.7H23.249V11.166h-5.98a2.4,2.4,0,0,1-2.3-2.374V2.612H3.393a.81.81,0,0,0-.867.9V27.284a.811.811,0,0,0,.867.9H14.7V30.79ZM17.5,8.682h5.062L17.5,3.45ZM5.462,16.953c-.5,0-1.141-.232-1.32-1.328l0-.02v-.019a1.276,1.276,0,0,1,1.325-1.37H20.434a1.274,1.274,0,0,1,1.323,1.367,1.276,1.276,0,0,1-1.323,1.37Zm-.119-5.032a1.25,1.25,0,0,1-1.2-1.366c0-.857.449-1.37,1.2-1.37h6.937a1.251,1.251,0,0,1,1.2,1.368c0,.856-.449,1.367-1.2,1.367Z"/><path class="c" d="M2.582,9.638V3.585l-.778.78a1.071,1.071,0,0,1-1.5,0,1.075,1.075,0,0,1,0-1.5l0,0L3.106.3a1.069,1.069,0,0,1,1.5,0l0,0L7.041,2.989a1.057,1.057,0,0,1-.754,1.8,1.06,1.06,0,0,1-.748-.305l-.781-.78V9.638a1.009,1.009,0,0,1-1.086,1.09A1.011,1.011,0,0,1,2.582,9.638Z" transform="translate(17.906 20.062)"/></g></g></svg>