<svg xmlns="http://www.w3.org/2000/svg" viewBox="0 0 32 32">
  <g>
    <path
      d="M24.549 31.622H3.741a2.4 2.4 0 01-2.453-2.343V7.013a2.4 2.4 0 012.453-2.344h20.808a2.4 2.4 0 012.453 2.344v22.266a2.4 2.4 0 01-2.453 2.343zM9.603 15.595h.169a13.743 13.743 0 002.53 5.6 8.175 8.175 0 01-2.327 1.324 11.741 11.741 0 01-2.548.731l-1.1.139.814.785a2.022 2.022 0 01.649.923l.118.547.514-.153a15.443 15.443 0 005.473-2.841 12.676 12.676 0 003.128 1.865 22.035 22.035 0 002.574.859l.392.1.179-.377a3.09 3.09 0 01.771-1.079l1.021-.834-1.288-.117a12.46 12.46 0 01-2.965-.725 8.046 8.046 0 01-2.3-1.221 13.653 13.653 0 001.34-2.3 13.115 13.115 0 001-3.153c.982 0 1.91.024 2.757.06l.527.022v-2.381l-.527.022c-.955.04-1.775.06-2.436.06h-2.664l-.216-.391c-.546-1-1.05-1.875-1.5-2.607l-.3-.5-.439.369a2.506 2.506 0 01-.793.5l-.659.2.372.6c.3.486.645 1.1 1.03 1.822H9.948c-.7 0-1.5-.02-2.379-.06l-.53-.015v2.426l.575-.082a14.485 14.485 0 011.989-.118zm4.192 4.058a8.9 8.9 0 01-1.816-3.99h3.527a10.78 10.78 0 01-1.709 3.99z" />
    <path d="M28.94-.032H13.326v2.388H28.8v20.778h2.388V2.219A2.253 2.253 0 0028.94-.032z" />
  </g>
</svg>