<svg xmlns="http://www.w3.org/2000/svg" xmlns:xlink="http://www.w3.org/1999/xlink" fill="none" version="1.1" width="16" height="16" viewBox="0 0 16 16"><defs><clipPath id="master_svg0_41_2099"><rect x="1" y="1" width="14" height="14" rx="0"/></clipPath></defs><g><rect x="0" y="0" width="16" height="16" rx="0" fill="#000000" fill-opacity="0" style="mix-blend-mode:passthrough"/><g clip-path="url(#master_svg0_41_2099)"><g transform="matrix(1,0,0,-1,0,30.6015625)"><g><path d="M8,15.30078125Q9.91406,15.32812505,11.5,16.23046925Q13.0859,17.16016125,14.0703,18.80078125Q15,20.46875125,15,22.30078125Q15,24.13281125,14.0703,25.80078125Q13.0859,27.44138125,11.5,28.37108125Q9.91406,29.27348125,8,29.30078125Q6.08594,29.27348125,4.5,28.37108125Q2.91406,27.44138125,1.929688,25.80078125Q1,24.13281125,1,22.30078125Q1,20.46875125,1.929688,18.80078125Q2.91406,17.16016125,4.5,16.23046925Q6.08594,15.32812505,8,15.30078125ZM7.34375,19.89453125L7.34375,21.64453125L7.34375,19.89453125L7.34375,21.64453125L5.59375,21.64453125Q4.99219,21.69922125,4.9375,22.30078125Q4.99219,22.90234125,5.59375,22.95703125L7.34375,22.95703125L7.34375,24.70703125Q7.39844,25.30858125,8,25.36328125Q8.60156,25.30858125,8.65625,24.70703125L8.65625,22.95703125L10.40625,22.95703125Q11.0078,22.90234125,11.0625,22.30078125Q11.0078,21.69922125,10.40625,21.64453125L8.65625,21.64453125L8.65625,19.89453125Q8.60156,19.29297125,8,19.23828125Q7.39844,19.29297125,7.34375,19.89453125Z" fill="#9CA3AF" fill-opacity="1" style="mix-blend-mode:passthrough"/></g></g></g></g></svg>