<svg xmlns="http://www.w3.org/2000/svg" xmlns:xlink="http://www.w3.org/1999/xlink" fill="none" version="1.1" width="21" height="24" viewBox="0 0 21 24"><g transform="matrix(1,0,0,-1,0,48)"><path d="M4.5,48Q2.57812,47.9531,1.3125,46.6875Q0.046875,45.4219,0,43.5L0,28.5Q0.046875,26.57812,1.3125,25.3125Q2.57812,24.046875,4.5,24L18,24L19.5,24Q20.1562,24,20.5781,24.421875Q21,24.84375,21,25.5Q21,26.15625,20.5781,26.57812Q20.1562,27,19.5,27L19.5,30Q20.1562,30,20.5781,30.42188Q21,30.84375,21,31.5L21,46.5Q21,47.1562,20.5781,47.5781Q20.1562,48,19.5,48L18,48L4.5,48ZM4.5,30L16.5,30L4.5,30L16.5,30L16.5,27L4.5,27Q3.84375,27,3.42188,27.42188Q3,27.84375,3,28.5Q3,29.15625,3.42188,29.57812Q3.84375,30,4.5,30ZM6,41.25Q6.04688,41.9531,6.75,42L15.75,42Q16.4531,41.9531,16.5,41.25Q16.4531,40.5469,15.75,40.5L6.75,40.5Q6.04688,40.5469,6,41.25ZM6.75,39L15.75,39L6.75,39L15.75,39Q16.4531,38.9531,16.5,38.25Q16.4531,37.5469,15.75,37.5L6.75,37.5Q6.04688,37.5469,6,38.25Q6.04688,38.9531,6.75,39Z" fill="#4F46E5" fill-opacity="1" style="mix-blend-mode:passthrough"/></g></svg>