<svg xmlns="http://www.w3.org/2000/svg" xmlns:xlink="http://www.w3.org/1999/xlink" fill="none" version="1.1" width="14" height="16" viewBox="0 0 14 16"><g transform="matrix(1,0,0,-1,0,32)"><path d="M3,32Q1.71875,31.9688,0.875,31.125Q0.03125,30.2812,0,29L0,19Q0.03125,17.71875,0.875,16.875Q1.71875,16.03125,3,16L12,16L13,16Q13.4375,16,13.7188,16.28125Q14,16.5625,14,17Q14,17.4375,13.7188,17.71875Q13.4375,18,13,18L13,20Q13.4375,20,13.7188,20.28125Q14,20.5625,14,21L14,31Q14,31.4375,13.7188,31.7188Q13.4375,32,13,32L12,32L3,32ZM3,20L11,20L3,20L11,20L11,18L3,18Q2.5625,18,2.28125,18.28125Q2,18.5625,2,19Q2,19.4375,2.28125,19.71875Q2.5625,20,3,20ZM4,27.5Q4.03125,27.9688,4.5,28L10.5,28Q10.9688,27.9688,11,27.5Q10.9688,27.0312,10.5,27L4.5,27Q4.03125,27.0312,4,27.5ZM4.5,26L10.5,26L4.5,26L10.5,26Q10.9688,25.96875,11,25.5Q10.9688,25.03125,10.5,25L4.5,25Q4.03125,25.03125,4,25.5Q4.03125,25.96875,4.5,26Z" fill="#4B5563" fill-opacity="1" style="mix-blend-mode:passthrough"/></g></svg>