<svg xmlns="http://www.w3.org/2000/svg" xmlns:xlink="http://www.w3.org/1999/xlink" fill="none" version="1.1" width="40" height="40" viewBox="0 0 40 40"><defs><clipPath id="master_svg0_41_13957"><rect x="14.5" y="12" width="11" height="16" rx="0"/></clipPath></defs><g><rect x="0" y="0" width="40" height="40" rx="12" fill="#FEF9C3" fill-opacity="1" style="mix-blend-mode:passthrough"/><g><rect x="14" y="12" width="12" height="16" rx="0" fill="#000000" fill-opacity="0" style="mix-blend-mode:passthrough"/><g clip-path="url(#master_svg0_41_13957)"><g transform="matrix(1,0,0,-1,0,56.6875)"><g><path d="M22,32.34375Q22.53125,33.78125,23.53125,35Q23.53125,35.03125,23.53125,35.03125Q23.78125,35.375,24.0312,35.71875Q24.9688,37.0625,25,38.84375Q24.9375,41.18755,23.375,42.71875Q21.84375,44.28125,19.5,44.34375Q17.15625,44.28125,15.625,42.71875Q14.0625,41.18755,14,38.84375Q14.03125,37.0625,14.96875,35.71875Q15.21875,35.375,15.46875,35.0625Q15.46875,35.03125,15.46875,35.03125Q16.46875,33.8125,17,32.34375L22,32.34375ZM19.5,28.34375Q20.5625,28.375,21.28125,29.0625Q21.96875,29.78125,22,30.84375L22,31.34375L17,31.34375L17,30.84375Q17.03125,29.78125,17.71875,29.0625Q18.4375,28.375,19.5,28.34375ZM17,38.84375Q16.96875,38.37495,16.5,38.34375Q16.03125,38.37495,16,38.84375Q16.03125,40.34375,17.03125,41.31255Q18,42.31255,19.5,42.34375Q19.96875,42.31255,20,41.84375Q19.96875,41.37495,19.5,41.34375Q18.4375,41.31255,17.71875,40.62495Q17.03125,39.90625,17,38.84375Z" fill="#EAB308" fill-opacity="1" style="mix-blend-mode:passthrough"/></g></g></g></g></g></svg>