<svg xmlns="http://www.w3.org/2000/svg" xmlns:xlink="http://www.w3.org/1999/xlink" fill="none" version="1.1" width="40" height="40" viewBox="0 0 40 40"><defs><clipPath id="master_svg0_41_10656"><rect x="12" y="12" width="16" height="16" rx="0"/></clipPath></defs><g><rect x="0" y="0" width="40" height="40" rx="12" fill="#F3E8FF" fill-opacity="1" style="mix-blend-mode:passthrough"/><g clip-path="url(#master_svg0_41_10656)"><g transform="matrix(1,0,0,-1,0,56.6875)"><g><path d="M17,43.34375Q17,43.78125,17.28125,44.06255Q17.5625,44.34375,18,44.34375L19,44.34375Q19.4375,44.34375,19.71875,44.06255Q20,43.78125,20,43.34375Q20.4375,43.34375,20.71875,43.06255Q21,42.78125,21,42.34375L21,35.34375Q21,34.90625,20.71875,34.625Q20.4375,34.34375,20,34.34375Q20,33.90625,19.71875,33.625Q19.4375,33.34375,19,33.34375L18,33.34375Q17.5625,33.34375,17.28125,33.625Q17,33.90625,17,34.34375Q16.5625,34.34375,16.28125,34.625Q16,34.90625,16,35.34375L16,42.34375Q16,42.78125,16.28125,43.06255Q16.5625,43.34375,17,43.34375ZM13,30.34375L22,30.34375L13,30.34375L22,30.34375Q23.6875,30.375,24.8438,31.5Q25.9688,32.65625,26,34.34375Q25.9688,36.03125,24.8438,37.1875Q23.6875,38.3125,22,38.34375L22,40.34375Q24.5625,40.28125,26.25,38.59375Q27.9375,36.90625,28,34.34375Q27.9375,32,26.4688,30.34375L27,30.34375Q27.4375,30.34375,27.7188,30.0625Q28,29.78125,28,29.34375Q28,28.90625,27.7188,28.625Q27.4375,28.34375,27,28.34375L22,28.34375L13,28.34375Q12.5625,28.34375,12.28125,28.625Q12,28.90625,12,29.34375Q12,29.78125,12.28125,30.0625Q12.5625,30.34375,13,30.34375ZM15.5,32.34375L21.5,32.34375L15.5,32.34375L21.5,32.34375Q21.96875,32.3125,22,31.84375Q21.96875,31.375,21.5,31.34375L15.5,31.34375Q15.03125,31.375,15,31.84375Q15.03125,32.3125,15.5,32.34375Z" fill="#A855F7" fill-opacity="1" style="mix-blend-mode:passthrough"/></g></g></g></g></svg>