<svg xmlns="http://www.w3.org/2000/svg" xmlns:xlink="http://www.w3.org/1999/xlink" fill="none" version="1.1" width="40" height="40" viewBox="0 0 40 40"><defs><clipPath id="master_svg0_41_10666"><rect x="13" y="12" width="14" height="16" rx="0"/></clipPath></defs><g><rect x="0" y="0" width="40" height="40" rx="12" fill="#FEE2E2" fill-opacity="1" style="mix-blend-mode:passthrough"/><g clip-path="url(#master_svg0_41_10666)"><g transform="matrix(1,0,0,-1,0,56.6875)"><g><path d="M17.96875,44.18755Q18.40625,44.53125,18.84375,44.15625Q20.125,42.96875,21.28125,41.53125Q21.78125,42.24995,22.4375,42.87495Q22.875,43.24995,23.3125,42.87495Q24.125,42.09375,24.7812,41.12495Q25.4688,40.18755,25.9375,39.18755Q26.4375,38.21875,26.7188,37.3125Q27,36.40625,27,35.6875Q26.9688,33.6875,26.0625,32.03125Q25.125,30.375,23.5312,29.375Q21.96875,28.375,20,28.34375Q18.03125,28.375,16.4375,29.375Q14.875,30.375,13.9375,32.03125Q13.03125,33.6875,13,35.6875Q13.0625,37.5625,14.40625,39.81255Q15.75,42.09375,17.96875,44.18755ZM20.0625,31.34375Q21.21875,31.34375,22.21875,32Q23.1875,32.71875,23.4375,33.90625Q23.6562,35.0625,23.0938,36.1875Q22.78125,36.625,22.375,36.25L21.59375,35.34375Q21.1875,35,20.8125,35.375Q20.40625,35.875,19.84375,36.59375Q19.28125,37.3125,18.84375,37.84375Q18.46875,38.21875,18.09375,37.875Q17.28125,36.875,16.90625,36.15625Q16.5,35.4375,16.5,34.75Q16.53125,33.125,17.53125,32.25Q18.53125,31.34375,20.0625,31.34375Z" fill="#EF4444" fill-opacity="1" style="mix-blend-mode:passthrough"/></g></g></g></g></svg>