<svg xmlns="http://www.w3.org/2000/svg" xmlns:xlink="http://www.w3.org/1999/xlink" fill="none" version="1.1" width="40" height="40" viewBox="0 0 40 40"><defs><clipPath id="master_svg0_41_10651"><rect x="10" y="12" width="20" height="16" rx="0"/></clipPath></defs><g><rect x="0" y="0" width="40" height="40" rx="12" fill="#DBEAFE" fill-opacity="1" style="mix-blend-mode:passthrough"/><g clip-path="url(#master_svg0_41_10651)"><g transform="matrix(1,0,0,-1,0,56.6875)"><g><path d="M14.5,44.34375Q15.90625,44.31255,16.65625,43.09375Q17.34375,41.84375,16.65625,40.59375Q15.90625,39.37495,14.5,39.34375Q13.09375,39.37495,12.34375,40.59375Q11.65625,41.84375,12.34375,43.09375Q13.09375,44.31255,14.5,44.34375ZM26,44.34375Q27.4062,44.31255,28.1562,43.09375Q28.8438,41.84375,28.1562,40.59375Q27.4062,39.37495,26,39.34375Q24.5938,39.37495,23.8438,40.59375Q23.1562,41.84375,23.8438,43.09375Q24.5938,44.31255,26,44.34375ZM10,35Q10.03125,36.4375,10.96875,37.375Q11.90625,38.3125,13.34375,38.34375L14.65625,38.34375Q15.40625,38.34375,16.0625,38.03125Q16,37.6875,16,37.34375Q16.0625,35.5,17.34375,34.34375L10.65625,34.34375Q10.0625,34.40625,10,35ZM22.6562,34.34375Q23.9375,35.5,24,37.34375Q24,37.6875,23.9375,38.03125Q24.5938,38.34375,25.3438,38.34375L26.6562,38.34375Q28.0938,38.3125,29.0312,37.375Q29.9688,36.4375,30,35Q29.9375,34.40625,29.3438,34.34375L22.6562,34.34375ZM17,37.34375Q17,38.15625,17.40625,38.84375Q17.8125,39.53125,18.5,39.93755Q19.21875,40.34375,20,40.34375Q20.7812,40.34375,21.5,39.93755Q22.1875,39.53125,22.5938,38.84375Q23,38.15625,23,37.34375Q23,36.53125,22.5938,35.84375Q22.1875,35.15625,21.5,34.75Q20.7812,34.34375,20,34.34375Q19.21875,34.34375,18.5,34.75Q17.8125,35.15625,17.40625,35.84375Q17,36.53125,17,37.34375ZM14,29.1875Q14.03125,30.9375,15.21875,32.125Q16.40625,33.3125,18.15625,33.34375L21.8438,33.34375Q23.5938,33.3125,24.7812,32.125Q25.9688,30.9375,26,29.1875Q25.9375,28.40625,25.1562,28.34375L14.84375,28.34375Q14.0625,28.40625,14,29.1875Z" fill="#3B82F6" fill-opacity="1" style="mix-blend-mode:passthrough"/></g></g></g></g></svg>