<svg xmlns="http://www.w3.org/2000/svg" xmlns:xlink="http://www.w3.org/1999/xlink" fill="none" version="1.1" width="40" height="40" viewBox="0 0 40 40"><defs><clipPath id="master_svg0_41_10661"><rect x="12" y="12" width="16" height="16" rx="0"/></clipPath></defs><g><rect x="0" y="0" width="40" height="40" rx="12" fill="#DCFCE7" fill-opacity="1" style="mix-blend-mode:passthrough"/><g clip-path="url(#master_svg0_41_10661)"><g transform="matrix(1,0,0,-1,0,56.5)"><g><path d="M19.501856121826172,44.1562Q19.734226121826172,44.1562,19.93339612182617,44.0625L26.20720612182617,41.5625Q26.771606121826174,41.3438,27.10350612182617,40.875Q27.468706121826173,40.4062,27.468706121826173,39.7812Q27.501906121826174,38.1875,26.904306121826174,36.03125Q26.30680612182617,33.875,24.746706121826172,31.84375Q23.21970612182617,29.78125,20.364926121826173,28.4375Q19.501856121826172,28.0625,18.638786121826172,28.4375Q15.784016121826172,29.78125,14.257046121826171,31.84375Q12.696876121826172,33.875,12.099369121826172,36.03125Q11.501858221826172,38.1875,11.535053221826171,39.7812Q11.535053221826171,40.4062,11.900198121826172,40.875Q12.232149121826172,41.3438,12.796466121826171,41.5625L19.07032612182617,44.0625Q19.269496121826172,44.1562,19.501856121826172,44.1562ZM19.501856121826172,42.0625L19.501856121826172,30.25L19.501856121826172,42.0625L19.501856121826172,30.25Q21.75910612182617,31.34375,23.053706121826174,33.03125Q24.315106121826172,34.71875,24.846306121826174,36.5Q25.344206121826172,38.3125,25.344206121826172,39.75L19.501856121826172,42.0625Z" fill="#22C55E" fill-opacity="1" style="mix-blend-mode:passthrough"/></g></g></g></g></svg>