<svg xmlns="http://www.w3.org/2000/svg" xmlns:xlink="http://www.w3.org/1999/xlink" fill="none" version="1.1" width="20.0625" height="20" viewBox="0 0 20.0625 20"><defs><clipPath id="master_svg0_5_0618"><rect x="0" y="2" width="20" height="16" rx="0"/></clipPath></defs><g><rect x="0.0625" y="0" width="20" height="20" rx="0" fill="#000000" fill-opacity="0" style="mix-blend-mode:passthrough"/><g clip-path="url(#master_svg0_5_0618)"><g transform="matrix(1,0,0,-1,0,36.687530517578125)"><g><path d="M6.5836534375,23.343765258789062Q9.3165734375,23.406265258789062,11.1488234375,24.968765258789062Q12.9811234375,26.500015258789062,13.0433234375,28.843765258789062Q12.9811234375,31.187565258789064,11.1488234375,32.71876525878906Q9.3165734375,34.28126525878906,6.5836534375,34.34376525878906Q3.8507334375,34.28126525878906,2.0184334374999997,32.71876525878906Q0.1861352375,31.187565258789064,0.1240234375,28.843765258789062Q0.1550793375,27.000015258789062,1.3662634375,25.625015258789062Q1.1799234375,25.156265258789062,0.9004214375,24.843765258789062Q0.6830294375,24.562515258789062,0.4966944375,24.406265258789062Q0.4035264375,24.312515258789062,0.3724704375,24.281265258789062Q0.3414144375,24.250015258789062,0.3414144375,24.250015258789062L0.31035843750000003,24.250015258789062Q0.0619116375,24.031265258789062,0.1550793375,23.687515258789062Q0.2793034375,23.375015258789062,0.6209174375,23.343765258789062Q1.6768234375,23.375015258789062,2.5463834375,23.718765258789062Q2.9811634375,23.906265258789062,3.3227834375,24.093765258789062Q4.7824134375,23.375015258789062,6.5836534375,23.343765258789062ZM14.0370234375,28.843765258789062Q13.9439234375,26.156265258789062,12.0495234375,24.406265258789062Q10.1240234375,22.656265258789062,7.3289934375,22.375015258789062Q7.9190534375,20.593765258789062,9.5960734375,19.500015258789062Q11.2731234375,18.375015258789062,13.5401234375,18.343765258789062Q15.3414234375,18.375015258789062,16.8010234375,19.093765258789062Q17.1426234375,18.906265258789062,17.5774234375,18.718765258789062Q18.4470234375,18.375015258789062,19.5029234375,18.343765258789062Q19.8445234375,18.375015258789062,19.9687234375,18.687515258789062Q20.0619234375,19.031265258789062,19.7824234375,19.250015258789062L19.7824234375,19.281265258789062Q19.7513234375,19.281265258789062,19.7513234375,19.281265258789062Q19.7203234375,19.312515258789062,19.6271234375,19.406265258789062Q19.4408234375,19.562515258789062,19.2234234375,19.843765258789062Q18.9439234375,20.187515258789062,18.7575234375,20.625015258789062Q19.9687234375,22.000015258789062,19.9998234375,23.843765258789062Q19.9377234375,26.062515258789062,18.2606234375,27.593765258789062Q16.5836234375,29.12496525878906,14.0060234375,29.343765258789062Q14.0370234375,29.093765258789062,14.0370234375,28.843765258789062Z" fill="#4B5563" fill-opacity="1" style="mix-blend-mode:passthrough"/></g></g></g></g></svg>