<svg xmlns="http://www.w3.org/2000/svg" xmlns:xlink="http://www.w3.org/1999/xlink" fill="none" version="1.1" width="30" height="24" viewBox="0 0 30 24"><g transform="matrix(1,0,0,-1,0,48)"><path d="M18.4219,47.9531Q17.8125,48.0938,17.25,47.8125Q16.7344,47.5312,16.5469,46.9219L10.5469,25.92188Q10.4062,25.3125,10.6875,24.75Q10.9688,24.234375,11.5781,24.046875Q12.1875,23.90625,12.75,24.1875Q13.2656,24.46875,13.4531,25.07812L19.4531,46.0781Q19.5938,46.6875,19.3125,47.25Q19.0312,47.7656,18.4219,47.9531ZM22.1719,42.3281Q21.75,41.8594,21.75,41.25Q21.75,40.6406,22.1719,40.1719L26.3906,36L22.1719,31.82812Q21.75,31.35938,21.75,30.75Q21.75,30.14062,22.1719,29.67188Q22.6406,29.25,23.25,29.25Q23.8594,29.25,24.3281,29.67188L29.5781,34.9219Q30,35.3906,30,36Q30,36.6094,29.5781,37.0781L24.3281,42.3281Q23.8594,42.75,23.25,42.75Q22.6406,42.75,22.1719,42.3281ZM7.82812,42.3281Q7.35938,42.75,6.75,42.75Q6.14062,42.75,5.67188,42.3281L0.421875,37.0781Q0,36.6094,0,36Q0,35.3906,0.421875,34.9219L5.67188,29.67188Q6.14062,29.25,6.75,29.25Q7.35938,29.25,7.82812,29.67188Q8.25,30.14062,8.25,30.75Q8.25,31.35938,7.82812,31.82812L3.60938,36L7.82812,40.1719Q8.25,40.6406,8.25,41.25Q8.25,41.8594,7.82812,42.3281Z" fill="#A855F7" fill-opacity="1" style="mix-blend-mode:passthrough"/></g></svg>