<svg xmlns="http://www.w3.org/2000/svg" xmlns:xlink="http://www.w3.org/1999/xlink" fill="none" version="1.1" width="16" height="14" viewBox="0 0 16 14"><g transform="matrix(1,0,0,-1,0,28)"><path d="M2,14L14,14L2,14L14,14Q14.8438,14.03125,15.4062,14.59375Q15.9688,15.15625,16,16L16,24Q15.9688,24.8438,15.4062,25.4062Q14.8438,25.9688,14,26L9,26Q8.5,26,8.1875,26.4062L7.59375,27.1875Q7,27.9688,6,28L2,28Q1.15625,27.9688,0.59375,27.4062Q0.03125,26.8438,0,26L0,16Q0.03125,15.15625,0.59375,14.59375Q1.15625,14.03125,2,14Z" fill="#4B5563" fill-opacity="1" style="mix-blend-mode:passthrough"/></g></svg>