<svg xmlns="http://www.w3.org/2000/svg" xmlns:xlink="http://www.w3.org/1999/xlink" fill="none" version="1.1" width="22.50493621826172" height="23.859375" viewBox="0 0 22.50493621826172 23.859375"><g transform="matrix(1,0,0,-1,0,47.71875)"><path d="M11.2525,47.718775Q11.5806,47.718775,11.8618,47.578175L20.7212,43.828175Q21.5181,43.499975,21.9868,42.796875Q22.5025,42.093775,22.5025,41.156275Q22.5493,38.765575,21.7056,35.531275Q20.8618,32.296875,18.6587,29.249995Q16.5025,26.156255,12.4712,24.140625Q11.2525,23.578125,10.0337,24.140625Q6.00247,26.156255,3.84622,29.249995Q1.64309,32.296875,0.799342,35.531275Q-0.0444079,38.765575,0.0024671,41.156275Q0.0024671,42.093775,0.518092,42.796875Q0.986842,43.499975,1.78372,43.828175L10.6431,47.578175Q10.9243,47.718775,11.2525,47.718775ZM11.2525,44.578175L11.2525,26.859375L11.2525,44.578175L11.2525,26.859375Q14.44,28.499995,16.2681,31.031255Q18.0493,33.562495,18.7993,36.234375Q19.5025,38.953175,19.5025,41.109375L11.2525,44.578175Z" fill="#EF4444" fill-opacity="1" style="mix-blend-mode:passthrough"/></g></svg>