<svg xmlns="http://www.w3.org/2000/svg" xmlns:xlink="http://www.w3.org/1999/xlink" fill="none" version="1.1" width="15.937106132507324" height="15.90625" viewBox="0 0 15.937106132507324 15.90625"><g transform="matrix(1,0,0,-1,0,31.8125)"><path d="M7.96855,31.81245Q8.20092,31.81245,8.40009,31.71875L14.6739,29.21875Q15.2383,29.00005,15.5702,28.53125Q15.9354,28.06245,15.9354,27.43745Q15.9686,25.84375,15.371,23.6875Q14.7735,21.53125,13.2134,19.5Q11.6864,17.4375,8.83162,16.09375Q7.96855,15.71875,7.10548,16.09375Q4.25071,17.4375,2.72374,19.5Q1.16357,21.53125,0.566063,23.6875Q-0.0314479,25.84375,0.0017471,27.43745Q0.0017471,28.06245,0.366892,28.53125Q0.698843,29.00005,1.26316,29.21875L7.53702,31.71875Q7.73619,31.81245,7.96855,31.81245ZM7.96855,29.71875L7.96855,17.90625L7.96855,29.71875L7.96855,17.90625Q10.2258,19,11.5204,20.6875Q12.7818,22.375,13.313,24.15625Q13.8109,25.96875,13.8109,27.40625L7.96855,29.71875Z" fill="#4B5563" fill-opacity="1" style="mix-blend-mode:passthrough"/></g></svg>