<svg xmlns="http://www.w3.org/2000/svg" xmlns:xlink="http://www.w3.org/1999/xlink" fill="none" version="1.1" width="14" height="16" viewBox="0 0 14 16"><g transform="matrix(1,0,0,-1,0,32)"><path d="M4.21875,31.4375L4,31L4.21875,31.4375L4,31L1,31Q0.5625,31,0.28125,30.7188Q0,30.4375,0,30Q0,29.5625,0.28125,29.2812Q0.5625,29,1,29L13,29Q13.4375,29,13.7188,29.2812Q14,29.5625,14,30Q14,30.4375,13.7188,30.7188Q13.4375,31,13,31L10,31L9.78125,31.4375Q9.5,31.9688,8.875,32L5.125,32Q4.5,31.9688,4.21875,31.4375ZM13,28L1,28L13,28L1,28L1.65625,17.40625Q1.71875,16.8125,2.125,16.40625Q2.5625,16,3.15625,16L10.8438,16Q11.4375,16,11.875,16.40625Q12.2812,16.8125,12.3438,17.40625L13,28Z" fill="#FFFFFF" fill-opacity="1" style="mix-blend-mode:passthrough"/></g></svg>