<svg xmlns="http://www.w3.org/2000/svg" xmlns:xlink="http://www.w3.org/1999/xlink" fill="none" version="1.1" width="16" height="16" viewBox="0 0 16 16"><defs><clipPath id="master_svg0_41_05612"><rect x="1" y="0" width="14" height="16" rx="0"/></clipPath></defs><g><rect x="0" y="0" width="16" height="16" rx="0" fill="#000000" fill-opacity="0" style="mix-blend-mode:passthrough"/><g><rect x="0" y="0" width="16" height="16" rx="0" fill="#000000" fill-opacity="0" style="mix-blend-mode:passthrough"/><g clip-path="url(#master_svg0_41_05612)"><g transform="matrix(1,0,0,-1,0,32.6875)"><g><path d="M5.21875,31.78125Q5.5,32.31255,6.125,32.34375L9.875,32.34375Q10.5,32.31255,10.78125,31.78125L11,31.34375L14,31.34375Q14.4375,31.34375,14.7188,31.06255Q15,30.78125,15,30.34375Q15,29.90625,14.7188,29.62495Q14.4375,29.34375,14,29.34375L2,29.34375Q1.5625,29.34375,1.28125,29.62495Q1,29.90625,1,30.34375Q1,30.78125,1.28125,31.06255Q1.5625,31.34375,2,31.34375L5,31.34375L5.21875,31.78125ZM2,28.34375L14,28.34375L2,28.34375L14,28.34375L14,18.34375Q13.9688,17.5,13.4062,16.9375Q12.8438,16.375,12,16.34375L4,16.34375Q3.15625,16.375,2.59375,16.9375Q2.03125,17.5,2,18.34375L2,28.34375ZM5,26.34375Q4.53125,26.3125,4.5,25.84375L4.5,18.84375Q4.53125,18.375,5,18.34375Q5.46875,18.375,5.5,18.84375L5.5,25.84375Q5.46875,26.3125,5,26.34375ZM8,26.34375Q7.53125,26.3125,7.5,25.84375L7.5,18.84375Q7.53125,18.375,8,18.34375Q8.46875,18.375,8.5,18.84375L8.5,25.84375Q8.46875,26.3125,8,26.34375ZM11,26.34375Q10.53125,26.3125,10.5,25.84375L10.5,18.84375Q10.53125,18.375,11,18.34375Q11.4688,18.375,11.5,18.84375L11.5,25.84375Q11.4688,26.3125,11,26.34375Z" fill="#9CA3AF" fill-opacity="1" style="mix-blend-mode:passthrough"/></g></g></g></g></g></svg>