<svg xmlns="http://www.w3.org/2000/svg" xmlns:xlink="http://www.w3.org/1999/xlink" fill="none" version="1.1" width="12.25" height="14" viewBox="0 0 12.25 14"><g transform="matrix(1,0,0,-1,0,28)"><path d="M3.69141,27.5078L3.5,27.125L3.69141,27.5078L3.5,27.125L0.875,27.125Q0.492188,27.125,0.246094,26.8789Q0,26.6328,0,26.25Q0,25.8672,0.246094,25.6211Q0.492188,25.375,0.875,25.375L11.375,25.375Q11.7578,25.375,12.0039,25.6211Q12.25,25.8672,12.25,26.25Q12.25,26.6328,12.0039,26.8789Q11.7578,27.125,11.375,27.125L8.75,27.125L8.55859,27.5078Q8.3125,27.9727,7.76562,28L4.48438,28Q3.9375,27.9727,3.69141,27.5078ZM11.375,24.5L0.875,24.5L11.375,24.5L0.875,24.5L1.44922,15.23047Q1.50391,14.710938,1.85938,14.355469Q2.24219,14,2.76172,14L9.48828,14Q10.0078,14,10.3906,14.355469Q10.7461,14.710938,10.8008,15.23047L11.375,24.5Z" fill="#DC2626" fill-opacity="1" style="mix-blend-mode:passthrough"/></g></svg>