<svg xmlns="http://www.w3.org/2000/svg" xmlns:xlink="http://www.w3.org/1999/xlink" fill="none" version="1.1" width="13.859375" height="13.863280296325684" viewBox="0 0 13.859375 13.863280296325684"><g transform="matrix(1,0,0,-1,0,27.726560592651367)"><path d="M12.9026,27.261680296325686Q12.4106,27.726580296325686,11.8092,27.726580296325686Q11.2078,27.726580296325686,10.7157,27.261680296325686L9.89565,26.441380296325683L12.5746,23.761720296325684L13.3947,24.581980296325682Q13.8594,25.074180296325686,13.8594,25.675780296325684Q13.8594,26.27738029632568,13.3947,26.769480296325682L12.9026,27.261680296325686ZM4.7018,21.246090296325683Q4.45578,21.000000296325684,4.34643,20.644530296325684L3.52635,18.238280296325684Q3.41701,17.855470296325684,3.69037,17.554690296325685Q3.99106,17.281250296325684,4.37377,17.390620296325682L6.80668,18.210940296325685Q7.13471,18.320310296325683,7.38073,18.566400296325682L11.9732,23.160150296325682L9.29426,25.83988029632568L4.7018,21.246090296325683ZM2.62426,26.113280296325684Q1.50348,26.085980296325683,0.765409,25.347680296325684Q0.027336,24.609380296325682,0,23.488280296325684L0,16.488280296325684Q0.027336,15.367190296325683,0.765409,14.628905296325684Q1.50348,13.890624096325684,2.62426,13.863280296325684L9.62229,13.863280296325684Q10.7431,13.890624096325684,11.4811,14.628905296325684Q12.2192,15.367190296325683,12.2465,16.488280296325684L12.2465,19.113280296325684Q12.2465,19.496090296325683,12.0005,19.742190296325685Q11.7545,19.988280296325684,11.3718,19.988280296325684Q10.9891,19.988280296325684,10.7431,19.742190296325685Q10.497,19.496090296325683,10.497,19.113280296325684L10.497,16.488280296325684Q10.497,16.105470296325684,10.251,15.859370296325684Q10.005,15.613280296325684,9.62229,15.613280296325684L2.62426,15.613280296325684Q2.24156,15.613280296325684,1.99553,15.859370296325684Q1.74951,16.105470296325684,1.74951,16.488280296325684L1.74951,23.488280296325684Q1.74951,23.871080296325683,1.99553,24.117180296325685Q2.24156,24.363280296325684,2.62426,24.363280296325684L5.24852,24.363280296325684Q5.63123,24.363280296325684,5.87725,24.609380296325682Q6.12327,24.855480296325684,6.12327,25.238280296325684Q6.12327,25.621080296325683,5.87725,25.867180296325685Q5.63123,26.113280296325684,5.24852,26.113280296325684L2.62426,26.113280296325684Z" fill="#2563EB" fill-opacity="1" style="mix-blend-mode:passthrough"/></g></svg>