<svg xmlns="http://www.w3.org/2000/svg" xmlns:xlink="http://www.w3.org/1999/xlink" fill="none" version="1.1" width="20" height="20" viewBox="0 0 20 20"><defs><clipPath id="master_svg0_5_4648"><rect x="2" y="2" width="16" height="16" rx="0"/></clipPath></defs><g><rect x="0" y="0" width="20" height="20" rx="0" fill="#000000" fill-opacity="0" style="mix-blend-mode:passthrough"/><g clip-path="url(#master_svg0_5_4648)"><g transform="matrix(1,0,0,-1,0,36.6875)"><g><path d="M4.34375,31.99995L3.28125,33.06255L4.34375,31.99995L3.28125,33.06255Q2.90625,33.40625,2.46875,33.21875Q2.03125,33.06255,2,32.53125L2,29.09375Q2.0625,28.40625,2.75,28.34375L6.1875,28.34375Q6.71875,28.37495,6.875,28.81255Q7.0625,29.24995,6.71875,29.62495L5.75,30.59375Q7.4375,32.28125,10,32.34375Q12.5625,32.28125,14.25,30.59375Q15.9375,28.90625,16,26.34375Q15.9375,23.78125,14.25,22.09375Q12.5625,20.40625,10,20.34375Q8.0625,20.375,6.5625,21.40625Q6.21875,21.65625,5.8125,21.59375Q5.4375,21.5,5.1875,21.15625Q4.9375,20.8125,5,20.4375Q5.09375,20.03125,5.4375,19.78125Q7.40625,18.375,10,18.34375Q12.25,18.375,14.0312,19.4375Q15.8438,20.5,16.9062,22.3125Q17.9688,24.09375,18,26.34375Q17.9688,28.59375,16.9062,30.37495Q15.8438,32.18755,14.0312,33.24995Q12.25,34.31255,10,34.34375Q8.34375,34.34375,6.875,33.71875Q5.4375,33.09375,4.34375,31.99995ZM10,30.34375Q9.3125,30.28125,9.25,29.59375L9.25,26.34375Q9.25,26.03125,9.46875,25.8125L11.71875,23.5625Q12.25,23.125,12.7812,23.5625Q13.2188,24.09375,12.7812,24.625L10.75,26.65625L10.75,29.59375Q10.6875,30.28125,10,30.34375Z" fill="#4B5563" fill-opacity="1" style="mix-blend-mode:passthrough"/></g></g></g></g></svg>