<svg xmlns="http://www.w3.org/2000/svg" xmlns:xlink="http://www.w3.org/1999/xlink" fill="none" version="1.1" width="16" height="16" viewBox="0 0 16 16"><defs><clipPath id="master_svg0_41_3480"><rect x="1" y="1" width="14" height="14" rx="0"/></clipPath></defs><g><rect x="0" y="0" width="16" height="16" rx="0" fill="#000000" fill-opacity="0" style="mix-blend-mode:passthrough"/><g clip-path="url(#master_svg0_41_3480)"><g transform="matrix(1,0,0,-1,0,30.6015625)"><g><path d="M8,29.30078125Q9.91406,29.27348125,11.5,28.37108125Q13.0859,27.44138125,14.0703,25.80078125Q15,24.13281125,15,22.30078125Q15,20.46875125,14.0703,18.80078125Q13.0859,17.16016125,11.5,16.23046925Q9.91406,15.32812505,8,15.30078125Q6.08594,15.32812505,4.5,16.23046925Q2.91406,17.16016125,1.929688,18.80078125Q1,20.46875125,1,22.30078125Q1,24.13281125,1.929688,25.80078125Q2.91406,27.44138125,4.5,28.37108125Q6.08594,29.27348125,8,29.30078125ZM7.34375,26.01958125L7.34375,22.30078125L7.34375,26.01958125L7.34375,22.30078125Q7.34375,21.94531125,7.64453,21.75390125L10.26953,20.00390125Q10.78906,19.70312125,11.1719,20.19531125Q11.4727,20.71484125,10.98047,21.09766125L8.65625,22.65625125L8.65625,26.01958125Q8.60156,26.62108125,8,26.67578125Q7.39844,26.62108125,7.34375,26.01958125Z" fill="#9CA3AF" fill-opacity="1" style="mix-blend-mode:passthrough"/></g></g></g></g></svg>