<svg xmlns="http://www.w3.org/2000/svg" xmlns:xlink="http://www.w3.org/1999/xlink" fill="none" version="1.1" width="20" height="20" viewBox="0 0 20 20"><defs><clipPath id="master_svg0_41_03568"><rect x="3" y="2" width="14" height="16" rx="0"/></clipPath></defs><g><rect x="0" y="0" width="20" height="20" rx="0" fill="#000000" fill-opacity="0" style="mix-blend-mode:passthrough"/><g clip-path="url(#master_svg0_41_03568)"><g transform="matrix(1,0,0,-1,0,36.6875)"><g><path d="M6,34.34375Q4.71875,34.31255,3.875,33.46875Q3.03125,32.62495,3,31.34375L3,21.34375Q3.03125,20.0625,3.875,19.21875Q4.71875,18.375,6,18.34375L15,18.34375L16,18.34375Q16.4375,18.34375,16.7188,18.625Q17,18.90625,17,19.34375Q17,19.78125,16.7188,20.0625Q16.4375,20.34375,16,20.34375L16,22.34375Q16.4375,22.34375,16.7188,22.625Q17,22.90625,17,23.34375L17,33.34375Q17,33.78125,16.7188,34.06255Q16.4375,34.34375,16,34.34375L15,34.34375L6,34.34375ZM6,22.34375L14,22.34375L6,22.34375L14,22.34375L14,20.34375L6,20.34375Q5.5625,20.34375,5.28125,20.625Q5,20.90625,5,21.34375Q5,21.78125,5.28125,22.0625Q5.5625,22.34375,6,22.34375ZM7,29.84375Q7.03125,30.31255,7.5,30.34375L13.5,30.34375Q13.9688,30.31255,14,29.84375Q13.9688,29.37495,13.5,29.34375L7.5,29.34375Q7.03125,29.37495,7,29.84375ZM7.5,28.34375L13.5,28.34375L7.5,28.34375L13.5,28.34375Q13.9688,28.3125,14,27.84375Q13.9688,27.375,13.5,27.34375L7.5,27.34375Q7.03125,27.375,7,27.84375Q7.03125,28.3125,7.5,28.34375Z" fill="#4B5563" fill-opacity="1" style="mix-blend-mode:passthrough"/></g></g></g></g></svg>