<svg xmlns="http://www.w3.org/2000/svg" xmlns:xlink="http://www.w3.org/1999/xlink" fill="none" version="1.1" width="14" height="16" viewBox="0 0 14 16"><defs><clipPath id="master_svg0_41_03543"><rect x="0" y="0" width="14" height="16" rx="0"/></clipPath></defs><g clip-path="url(#master_svg0_41_03543)"><g transform="matrix(1,0,0,-1,0,20.187519073486328)"><g><path d="M-0.12695300579071045,11.843759536743164Q-0.09513480579071046,12.843759536743164,0.7639559942092895,13.343759536743164Q1.6548669942092895,13.843759536743164,2.5457769942092896,13.343759536743164Q3.4048669942092897,12.843759536743164,3.4366869942092895,11.843759536743164Q3.4048669942092897,10.843759536743164,2.5457769942092896,10.343759536743164Q1.6548669942092895,9.843759536743164,0.7639559942092895,10.343759536743164Q-0.09513480579071046,10.843759536743164,-0.12695300579071045,11.843759536743164ZM4.96395699420929,11.843759536743164Q4.995776994209289,12.843759536743164,5.8548669942092895,13.343759536743164Q6.745776994209289,13.843759536743164,7.636686994209289,13.343759536743164Q8.49577699420929,12.843759536743164,8.52758699420929,11.843759536743164Q8.49577699420929,10.843759536743164,7.636686994209289,10.343759536743164Q6.745776994209289,9.843759536743164,5.8548669942092895,10.343759536743164Q4.995776994209289,10.843759536743164,4.96395699420929,11.843759536743164ZM11.83664699420929,13.593759536743164Q12.85484699420929,13.562509536743164,13.36394699420929,12.718759536743164Q13.87304699420929,11.843759536743164,13.36394699420929,10.968759536743164Q12.85484699420929,10.125009536743164,11.83664699420929,10.093759536743164Q10.818546994209289,10.125009536743164,10.30944699420929,10.968759536743164Q9.80031699420929,11.843759536743164,10.30944699420929,12.718759536743164Q10.818546994209289,13.562509536743164,11.83664699420929,13.593759536743164Z" fill="#9CA3AF" fill-opacity="1" style="mix-blend-mode:passthrough"/></g></g></g></svg>