<svg xmlns="http://www.w3.org/2000/svg" xmlns:xlink="http://www.w3.org/1999/xlink" fill="none" version="1.1" width="24" height="22.5" viewBox="0 0 24 22.5"><g transform="matrix(1,0,0,-1,0,45)"><path d="M8.625,42.75L15.375,42.75L8.625,42.75L15.375,42.75Q15.7031,42.7031,15.75,42.375L15.75,40.5L8.25,40.5L8.25,42.375Q8.29688,42.7031,8.625,42.75ZM6,42.375L6,40.5L6,42.375L6,40.5L3,40.5Q1.73438,40.4531,0.890625,39.6094Q0.046875,38.7656,0,37.5L0,33L9,33L24,33L24,37.5Q23.9531,38.7656,23.1094,39.6094Q22.2656,40.4531,21,40.5L18,40.5L18,42.375Q17.9531,43.5,17.25,44.25Q16.5,44.9531,15.375,45L8.625,45Q7.5,44.9531,6.75,44.25Q6.04688,43.5,6,42.375ZM24,31.5L15,31.5L24,31.5L15,31.5L15,30Q15,29.34375,14.5781,28.92188Q14.1562,28.5,13.5,28.5L10.5,28.5Q9.84375,28.5,9.42188,28.92188Q9,29.34375,9,30L9,31.5L0,31.5L0,25.5Q0.046875,24.23438,0.890625,23.390625Q1.73438,22.546875,3,22.5L21,22.5Q22.2656,22.546875,23.1094,23.390625Q23.9531,24.23438,24,25.5L24,31.5Z" fill="#F97316" fill-opacity="1" style="mix-blend-mode:passthrough"/></g></svg>