<svg xmlns="http://www.w3.org/2000/svg" xmlns:xlink="http://www.w3.org/1999/xlink" fill="none" version="1.1" width="16" height="15" viewBox="0 0 16 15"><g transform="matrix(1,0,0,-1,0,30)"><path d="M5.75,28.5L10.25,28.5L5.75,28.5L10.25,28.5Q10.4688,28.4688,10.5,28.25L10.5,27L5.5,27L5.5,28.25Q5.53125,28.4688,5.75,28.5ZM4,28.25L4,27L4,28.25L4,27L2,27Q1.15625,26.9688,0.59375,26.4062Q0.03125,25.8438,0,25L0,22L6,22L16,22L16,25Q15.9688,25.8438,15.4062,26.4062Q14.8438,26.9688,14,27L12,27L12,28.25Q11.9688,29,11.5,29.5Q11,29.9688,10.25,30L5.75,30Q5,29.9688,4.5,29.5Q4.03125,29,4,28.25ZM16,21L10,21L16,21L10,21L10,20Q10,19.5625,9.71875,19.28125Q9.4375,19,9,19L7,19Q6.5625,19,6.28125,19.28125Q6,19.5625,6,20L6,21L0,21L0,17Q0.03125,16.15625,0.59375,15.59375Q1.15625,15.03125,2,15L14,15Q14.8438,15.03125,15.4062,15.59375Q15.9688,16.15625,16,17L16,21Z" fill="#4B5563" fill-opacity="1" style="mix-blend-mode:passthrough"/></g></svg>