<svg xmlns="http://www.w3.org/2000/svg" xmlns:xlink="http://www.w3.org/1999/xlink" fill="none" version="1.1" width="12.25" height="14" viewBox="0 0 12.25 14"><g transform="matrix(1,0,0,-1,0,28)"><path d="M6.125,21Q7.08203,21,7.875,21.46484Q8.66797,21.92969,9.16016,22.75Q9.625,23.57031,9.625,24.5Q9.625,25.4297,9.16016,26.25Q8.66797,27.0703,7.875,27.5352Q7.08203,28,6.125,28Q5.16797,28,4.375,27.5352Q3.58203,27.0703,3.08984,26.25Q2.625,25.4297,2.625,24.5Q2.625,23.57031,3.08984,22.75Q3.58203,21.92969,4.375,21.46484Q5.16797,21,6.125,21ZM4.86719,19.6875Q2.81641,19.63281,1.42188,18.26562Q0.0546875,16.87109,0,14.820312Q0,14.464844,0.246094,14.246094Q0.464844,14,0.820312,14L11.4297,14Q11.7852,14,12.0039,14.246094Q12.25,14.464844,12.25,14.820312Q12.1953,16.87109,10.8281,18.26562Q9.43359,19.63281,7.38281,19.6875L4.86719,19.6875Z" fill="#6B7280" fill-opacity="1" style="mix-blend-mode:passthrough"/></g></svg>