<svg xmlns="http://www.w3.org/2000/svg" fill="none" viewBox="0 0 18 18">
  <path
    d="M8.75.3q.383 0 .629.247.246.246.246.629v1.75h3.281q.848.027 1.395.574.547.547.574 1.395v7.437q-.027.848-.574 1.395-.547.546-1.395.574H4.594q-.848-.028-1.395-.574-.547-.547-.574-1.395V4.895q.027-.848.574-1.395.547-.547 1.395-.574h3.281v-1.75q0-.383.246-.63.246-.245.629-.245zM5.687 10.8q-.41.028-.437.438.027.41.438.438h.875q.41-.028.437-.438-.027-.41-.438-.437h-.875zm2.625 0q-.41.028-.437.438.027.41.438.438h.874q.41-.028.438-.438-.027-.41-.438-.437h-.874zm2.626 0q-.41.028-.438.438.027.41.438.438h.874q.41-.028.438-.438-.027-.41-.438-.437h-.874zm-3.72-3.5q-.027-.628-.546-.956-.547-.274-1.094 0-.52.328-.547.957.028.629.547.957.547.273 1.094 0 .52-.328.547-.957zm4.157 1.095q.629-.028.957-.547.273-.547 0-1.094-.328-.52-.957-.547-.629.027-.957.547-.273.547 0 1.094.328.52.957.547zM1.312 6.425h.438-.438.438v5.25h-.438q-.546-.027-.93-.382-.355-.383-.382-.93V7.738q.027-.547.383-.93.383-.355.93-.382zm14.876 0q.546.028.93.384.355.382.382.93v2.624q-.027.547-.383.93-.383.355-.93.383h-.437v-5.25h.438z"
    fill="#FFF" />
</svg>