<svg xmlns="http://www.w3.org/2000/svg" xmlns:xlink="http://www.w3.org/1999/xlink" fill="none" version="1.1" width="20" height="20" viewBox="0 0 20 20"><defs><clipPath id="master_svg0_5_4608"><rect x="2" y="2" width="16" height="16" rx="0"/></clipPath></defs><g><rect x="0" y="0" width="20" height="20" rx="0" fill="#000000" fill-opacity="0" style="mix-blend-mode:passthrough"/><g clip-path="url(#master_svg0_5_4608)"><g transform="matrix(1,0,0,-1,0,36.6875)"><g><path d="M15,27.84375Q14.9688,25.65625,13.75,24L17.7188,20.0625Q18,19.75,18,19.34375Q18,18.9375,17.7188,18.625Q17.4062,18.34375,17,18.34375Q16.5938,18.34375,16.2812,18.625L12.3438,22.59375Q10.6875,21.375,8.5,21.34375Q5.75,21.40625,3.90625,23.25Q2.0625,25.09375,2,27.84375Q2.0625,30.59375,3.90625,32.43755Q5.75,34.28125,8.5,34.34375Q11.25,34.28125,13.0938,32.43755Q14.9375,30.59375,15,27.84375ZM8.5,23.34375Q9.71875,23.34375,10.75,23.9375Q11.78125,24.53125,12.4062,25.59375Q13,26.65625,13,27.84375Q13,29.03125,12.4062,30.09375Q11.78125,31.15625,10.75,31.74995Q9.71875,32.34375,8.5,32.34375Q7.28125,32.34375,6.25,31.74995Q5.21875,31.15625,4.59375,30.09375Q4,29.03125,4,27.84375Q4,26.65625,4.59375,25.59375Q5.21875,24.53125,6.25,23.9375Q7.28125,23.34375,8.5,23.34375Z" fill="#4B5563" fill-opacity="1" style="mix-blend-mode:passthrough"/></g></g></g></g></svg>