<svg xmlns="http://www.w3.org/2000/svg" xmlns:xlink="http://www.w3.org/1999/xlink" fill="none" version="1.1" width="20" height="20" viewBox="0 0 20 20"><defs><clipPath id="master_svg0_5_4613"><rect x="2.375" y="2" width="15.25" height="16" rx="0"/></clipPath></defs><g><rect x="0" y="0" width="20" height="20" rx="0" fill="#000000" fill-opacity="0" style="mix-blend-mode:passthrough"/><g clip-path="url(#master_svg0_5_4613)"><g transform="matrix(1,0,0,-1,0,36.6875)"><g><path d="M17.12428776092529,29.12495Q17.24928776092529,28.68755,16.93678776092529,28.37495L15.561787760925293,27.125Q15.624287760925293,26.75,15.624287760925293,26.34375Q15.624287760925293,25.9375,15.561787760925293,25.5625L16.93678776092529,24.3125Q17.24928776092529,24,17.12428776092529,23.5625Q16.905587760925293,23,16.62428776092529,22.46875L16.468087760925293,22.21875Q16.155587760925293,21.71875,15.780587760925293,21.25Q15.468087760925293,20.90625,15.030587760925293,21.03125L13.280587760925293,21.59375Q12.655587760925293,21.09375,11.905547760925293,20.8125L11.530547760925293,19Q11.405547760925293,18.5625,10.936797760925293,18.46875Q10.311797760925293,18.34375,9.624297760925293,18.34375Q8.936797760925293,18.34375,8.280547760925293,18.46875Q7.843047760925293,18.5625,7.718047760925293,19L7.343047760925293,20.8125Q6.593047760925293,21.09375,5.968047760925293,21.59375L4.218047760925293,21.03125Q3.780547760925293,20.90625,3.468047760925293,21.25Q3.061801760925293,21.71875,2.780551760925293,22.21875L2.624301760925293,22.46875Q2.343051760925293,23,2.124302060925293,23.53125Q1.999302060925293,24,2.311801760925293,24.3125L3.686797760925293,25.53125Q3.624297760925293,25.9375,3.624297760925293,26.34375Q3.624297760925293,26.75,3.686797760925293,27.125L2.311801760925293,28.37495Q1.999302060925293,28.68755,2.124302060925293,29.12495Q2.343051760925293,29.68755,2.624301760925293,30.21875L2.780551760925293,30.46875Q3.061801760925293,30.96875,3.468047760925293,31.43755Q3.780547760925293,31.78125,4.218047760925293,31.65625L5.968047760925293,31.09375Q6.593047760925293,31.59375,7.343047760925293,31.90625L7.718047760925293,33.68755Q7.843047760925293,34.12495,8.311797760925293,34.21875Q8.936797760925293,34.34375,9.624297760925293,34.34375Q10.311797760925293,34.34375,10.968047760925293,34.21875Q11.405547760925293,34.12495,11.530547760925293,33.68755L11.905547760925293,31.90625Q12.655587760925293,31.59375,13.280587760925293,31.09375L15.030587760925293,31.65625Q15.468087760925293,31.78125,15.780587760925293,31.43755Q16.18678776092529,30.96875,16.49928776092529,30.46875L16.62428776092529,30.21875Q16.905587760925293,29.68755,17.12428776092529,29.12495ZM9.624297760925293,23.84375Q11.030547760925293,23.875,11.780547760925293,25.09375Q12.468087760925293,26.34375,11.780547760925293,27.59375Q11.030547760925293,28.81255,9.624297760925293,28.84375Q8.218047760925293,28.81255,7.468047760925293,27.59375Q6.780547760925293,26.34375,7.468047760925293,25.09375Q8.218047760925293,23.875,9.624297760925293,23.84375Z" fill="#374151" fill-opacity="1" style="mix-blend-mode:passthrough"/></g></g></g></g></svg>