<svg xmlns="http://www.w3.org/2000/svg" xmlns:xlink="http://www.w3.org/1999/xlink" fill="none" version="1.1" width="16" height="15" viewBox="0 0 16 15"><g transform="matrix(1,0,0,-1,0,30)"><path d="M0,17.5Q0,17.0625,0.28125,16.78125Q0.5625,16.5,1,16.5L2.71875,16.5Q3,15.8125,3.625,15.40625Q4.21875,15,5,15Q5.78125,15,6.375,15.40625Q7,15.8125,7.28125,16.5L15,16.5Q15.4375,16.5,15.7188,16.78125Q16,17.0625,16,17.5Q16,17.9375,15.7188,18.21875Q15.4375,18.5,15,18.5L7.28125,18.5Q7,19.1875,6.375,19.59375Q5.78125,20,5,20Q4.21875,20,3.625,19.59375Q3,19.1875,2.71875,18.5L1,18.5Q0.5625,18.5,0.28125,18.21875Q0,17.9375,0,17.5ZM4,17.5Q4,17.9375,4.28125,18.21875Q4.5625,18.5,5,18.5Q5.4375,18.5,5.71875,18.21875Q6,17.9375,6,17.5Q6,17.0625,5.71875,16.78125Q5.4375,16.5,5,16.5Q4.5625,16.5,4.28125,16.78125Q4,17.0625,4,17.5ZM10,22.5Q10,22.9375,10.2812,23.21875Q10.5625,23.5,11,23.5Q11.4375,23.5,11.7188,23.21875Q12,22.9375,12,22.5Q12,22.0625,11.7188,21.78125Q11.4375,21.5,11,21.5Q10.5625,21.5,10.2812,21.78125Q10,22.0625,10,22.5ZM11,25Q10.2188,25,9.625,24.59375Q9,24.1875,8.71875,23.5L1,23.5Q0.5625,23.5,0.28125,23.21875Q0,22.9375,0,22.5Q0,22.0625,0.28125,21.78125Q0.5625,21.5,1,21.5L8.71875,21.5Q9,20.8125,9.625,20.40625Q10.2188,20,11,20Q11.7812,20,12.375,20.40625Q13,20.8125,13.2812,21.5L15,21.5Q15.4375,21.5,15.7188,21.78125Q16,22.0625,16,22.5Q16,22.9375,15.7188,23.21875Q15.4375,23.5,15,23.5L13.2812,23.5Q13,24.1875,12.375,24.59375Q11.7812,25,11,25ZM6,26.5Q5.5625,26.5,5.28125,26.7812Q5,27.0625,5,27.5Q5,27.9375,5.28125,28.2188Q5.5625,28.5,6,28.5Q6.4375,28.5,6.71875,28.2188Q7,27.9375,7,27.5Q7,27.0625,6.71875,26.7812Q6.4375,26.5,6,26.5ZM8.28125,28.5Q8,29.1875,7.375,29.5938Q6.78125,30,6,30Q5.21875,30,4.625,29.5938Q4,29.1875,3.71875,28.5L1,28.5Q0.5625,28.5,0.28125,28.2188Q0,27.9375,0,27.5Q0,27.0625,0.28125,26.7812Q0.5625,26.5,1,26.5L3.71875,26.5Q4,25.8125,4.625,25.4062Q5.21875,25,6,25Q6.78125,25,7.375,25.4062Q8,25.8125,8.28125,26.5L15,26.5Q15.4375,26.5,15.7188,26.7812Q16,27.0625,16,27.5Q16,27.9375,15.7188,28.2188Q15.4375,28.5,15,28.5L8.28125,28.5Z" fill="#9CA3AF" fill-opacity="1" style="mix-blend-mode:passthrough"/></g></svg>