<svg xmlns="http://www.w3.org/2000/svg" xmlns:xlink="http://www.w3.org/1999/xlink" fill="none" version="1.1" width="20" height="16" viewBox="0 0 20 16"><g transform="matrix(1,0,0,-1,0,32)"><path d="M4.5,32Q5.90625,31.9688,6.65625,30.75Q7.34375,29.5,6.65625,28.25Q5.90625,27.0312,4.5,27Q3.09375,27.0312,2.34375,28.25Q1.65625,29.5,2.34375,30.75Q3.09375,31.9688,4.5,32ZM16,32Q17.4062,31.9688,18.1562,30.75Q18.8438,29.5,18.1562,28.25Q17.4062,27.0312,16,27Q14.5938,27.0312,13.8438,28.25Q13.1562,29.5,13.8438,30.75Q14.5938,31.9688,16,32ZM0,22.65625Q0.03125,24.09375,0.96875,25.03125Q1.90625,25.96875,3.34375,26L4.65625,26Q5.40625,26,6.0625,25.6875Q6,25.34375,6,25Q6.0625,23.15625,7.34375,22L0.65625,22Q0.0625,22.0625,0,22.65625ZM12.6562,22Q13.9375,23.15625,14,25Q14,25.34375,13.9375,25.6875Q14.5938,26,15.3438,26L16.6562,26Q18.0938,25.96875,19.0312,25.03125Q19.9688,24.09375,20,22.65625Q19.9375,22.0625,19.3438,22L12.6562,22ZM7,25Q7,25.8125,7.40625,26.5Q7.8125,27.1875,8.5,27.5938Q9.21875,28,10,28Q10.7812,28,11.5,27.5938Q12.1875,27.1875,12.5938,26.5Q13,25.8125,13,25Q13,24.1875,12.5938,23.5Q12.1875,22.8125,11.5,22.40625Q10.7812,22,10,22Q9.21875,22,8.5,22.40625Q7.8125,22.8125,7.40625,23.5Q7,24.1875,7,25ZM4,16.84375Q4.03125,18.59375,5.21875,19.78125Q6.40625,20.96875,8.15625,21L11.8438,21Q13.5938,20.96875,14.7812,19.78125Q15.9688,18.59375,16,16.84375Q15.9375,16.0625,15.1562,16L4.84375,16Q4.0625,16.0625,4,16.84375Z" fill="#4B5563" fill-opacity="1" style="mix-blend-mode:passthrough"/></g></svg>