<svg xmlns="http://www.w3.org/2000/svg" xmlns:xlink="http://www.w3.org/1999/xlink" fill="none" version="1.1" width="23.723939895629883" height="24.001951217651367" viewBox="0 0 23.723939895629883 24.001951217651367"><g transform="matrix(1,0,0,-1,0,48.003902435302734)"><path d="M3.66216,47.767551217651366Q2.87452,48.283151217651366,2.17954,47.67385121765137L0.326255,45.79885121765137Q-0.276062,45.09575121765137,0.233591,44.29885121765137L3.94015,39.42385121765137Q4.26448,39.00195121765137,4.82046,39.00195121765137L7.32239,39.00195121765137L12.3726,33.892571217651366Q11.8629,32.86133121765137,12.0483,31.689451217651367Q12.1873,30.564451217651367,13.0212,29.67383121765137L18.2104,24.423826217651367Q18.6737,24.001951217651367,19.2761,24.001951217651367Q19.8784,24.001951217651367,20.3417,24.423826217651367L23.3069,27.42383121765137Q23.7239,27.892571217651366,23.7239,28.501951217651367Q23.7239,29.11133121765137,23.3069,29.580071217651366L18.1178,34.830051217651366Q17.2375,35.67385121765137,16.1255,35.81445121765137Q14.9672,36.00195121765137,13.9479,35.48635121765137L8.89768,40.59575121765137L8.89768,43.12695121765137Q8.89768,43.68945121765137,8.48069,44.017551217651366L3.66216,47.767551217651366ZM0.928571,29.439451217651367Q0.00193052,28.501951217651367,0.00193052,27.189451217651367Q0.0482626,25.830071217651366,0.928571,24.939451217651367Q1.80888,24.048826217651367,3.15251,24.001951217651367Q4.44981,24.001951217651367,5.37645,24.939451217651367L10.8436,30.470701217651367Q10.2876,31.970701217651367,10.6583,33.517571217651366L7.78571,36.42385121765137L0.928571,29.439451217651367ZM23.7239,41.25195121765137Q23.7239,42.00195121765137,23.5849,42.658151217651366Q23.4459,43.080051217651366,23.1216,43.17385121765137Q22.751,43.22075121765137,22.473,42.93945121765137L19.5077,39.98635121765137Q19.2761,39.75195121765137,18.9517,39.75195121765137L16.3108,39.75195121765137Q15.6158,39.79885121765137,15.5695,40.50195121765137L15.5695,43.17385121765137Q15.5695,43.50195121765137,15.8012,43.73635121765137L18.7664,46.73635121765137Q19.0444,47.017551217651366,18.9517,47.392551217651366Q18.8591,47.72075121765137,18.4884,47.86135121765137Q17.7934,48.00195121765137,17.0521,48.00195121765137Q14.2259,47.908151217651366,12.3263,46.033151217651366Q10.473,44.11135121765137,10.3803,41.25195121765137L10.3803,41.205051217651366L14.3185,37.22075121765137Q15.6158,37.54885121765137,16.8668,37.22075121765137Q18.1641,36.84575121765137,19.1371,35.86135121765137L19.8784,35.11135121765137Q21.5927,35.955051217651366,22.6583,37.59575121765137Q23.6776,39.18945121765137,23.7239,41.25195121765137ZM2.59652,27.751951217651367Q2.68919,28.783201217651367,3.70849,28.876951217651367Q4.7278,28.783201217651367,4.82046,27.751951217651367Q4.7278,26.720701217651367,3.70849,26.626951217651367Q2.68919,26.720701217651367,2.59652,27.751951217651367Z" fill="#22C55E" fill-opacity="1" style="mix-blend-mode:passthrough"/></g></svg>