<svg xmlns="http://www.w3.org/2000/svg" xmlns:xlink="http://www.w3.org/1999/xlink" fill="none" version="1.1" width="15.815958976745605" height="16.001300811767578" viewBox="0 0 15.815958976745605 16.001300811767578"><g transform="matrix(1,0,0,-1,0,32.002601623535156)"><path d="M2.44144,31.84510081176758Q1.91634,32.18880081176758,1.45302,31.782500811767576L0.217503,30.532500811767576Q-0.184041,30.063800811767578,0.155727,29.532500811767576L2.62677,26.282500811767576Q2.84299,26.001300811767578,3.21364,26.001300811767578L4.8816,26.001300811767578L8.24839,22.595050811767578Q7.90862,21.907550811767578,8.03217,21.126300811767578Q8.12484,20.376300811767578,8.68082,19.782550811767578L12.1403,16.282550811767578Q12.4492,16.001300811767578,12.8507,16.001300811767578Q13.2523,16.001300811767578,13.5611,16.282550811767578L15.538,18.282550811767578Q15.816,18.595050811767578,15.816,19.001300811767578Q15.816,19.407550811767578,15.538,19.720050811767578L12.0785,23.220050811767578Q11.4916,23.782550811767578,10.7503,23.876300811767578Q9.97812,24.001300811767578,9.29858,23.657550811767578L5.93179,27.063800811767578L5.93179,28.751300811767578Q5.93179,29.126300811767578,5.6538,29.34510081176758L2.44144,31.84510081176758ZM0.619048,19.626300811767578Q0.00128701,19.001300811767578,0.00128701,18.126300811767578Q0.032175,17.220050811767578,0.619048,16.626300811767578Q1.20592,16.032550811767578,2.10167,16.001300811767578Q2.96654,16.001300811767578,3.5843,16.626300811767578L7.22909,20.313800811767578Q6.85843,21.313800811767578,7.10553,22.345050811767578L5.19048,24.282550811767578L0.619048,19.626300811767578ZM15.816,27.501300811767578Q15.816,28.001300811767578,15.7233,28.438800811767578Q15.6306,28.72010081176758,15.4144,28.782500811767576Q15.1673,28.813800811767578,14.982,28.626300811767578L13.0051,26.657500811767576Q12.8507,26.501300811767578,12.6345,26.501300811767578L10.8739,26.501300811767578Q10.4106,26.532500811767576,10.3797,27.001300811767578L10.3797,28.782500811767576Q10.3797,29.001300811767578,10.5341,29.157500811767576L12.5109,31.157500811767576Q12.6963,31.34510081176758,12.6345,31.59510081176758Q12.5727,31.813800811767578,12.3256,31.907500811767576Q11.8623,32.00130081176758,11.3681,32.00130081176758Q9.48391,31.938800811767578,8.2175,30.688800811767578Q6.98198,29.407500811767576,6.92021,27.501300811767578L6.92021,27.47010081176758L9.54569,24.813800811767578Q10.4106,25.032550811767578,11.2445,24.813800811767578Q12.1094,24.563800811767578,12.758,23.907550811767578L13.2523,23.407550811767578Q14.3951,23.970050811767578,15.1055,25.063800811767578Q15.7851,26.126300811767578,15.816,27.501300811767578ZM1.73102,18.501300811767578Q1.79279,19.188800811767578,2.47233,19.251300811767578Q3.15187,19.188800811767578,3.21364,18.501300811767578Q3.15187,17.813800811767578,2.47233,17.751300811767578Q1.79279,17.813800811767578,1.73102,18.501300811767578Z" fill="#4B5563" fill-opacity="1" style="mix-blend-mode:passthrough"/></g></svg>