<svg xmlns="http://www.w3.org/2000/svg" xmlns:xlink="http://www.w3.org/1999/xlink" fill="none" version="1.1" width="12" height="16" viewBox="0 0 12 16"><g transform="matrix(1,0,0,-1,0,32)"><path d="M2,32Q1.15625,31.9688,0.59375,31.4062Q0.03125,30.8438,0,30L0,18Q0.03125,17.15625,0.59375,16.59375Q1.15625,16.03125,2,16L10,16Q10.8438,16.03125,11.4062,16.59375Q11.9688,17.15625,12,18L12,27L8,27Q7.5625,27,7.28125,27.2812Q7,27.5625,7,28L7,32L2,32ZM8,32L8,28L8,32L8,28L12,28L8,32ZM3.5,24L8.5,24L3.5,24L8.5,24Q8.96875,23.96875,9,23.5Q8.96875,23.03125,8.5,23L3.5,23Q3.03125,23.03125,3,23.5Q3.03125,23.96875,3.5,24ZM3.5,22L8.5,22L3.5,22L8.5,22Q8.96875,21.96875,9,21.5Q8.96875,21.03125,8.5,21L3.5,21Q3.03125,21.03125,3,21.5Q3.03125,21.96875,3.5,22ZM3.5,20L8.5,20L3.5,20L8.5,20Q8.96875,19.96875,9,19.5Q8.96875,19.03125,8.5,19L3.5,19Q3.03125,19.03125,3,19.5Q3.03125,19.96875,3.5,20Z" fill="#4B5563" fill-opacity="1" style="mix-blend-mode:passthrough"/></g></svg>