<svg xmlns="http://www.w3.org/2000/svg" xmlns:xlink="http://www.w3.org/1999/xlink" fill="none" version="1.1" width="18" height="24" viewBox="0 0 18 24"><g transform="matrix(1,0,0,-1,0,48)"><path d="M3,48Q1.73438,47.9531,0.890625,47.1094Q0.046875,46.2656,0,45L0,27Q0.046875,25.73438,0.890625,24.890625Q1.73438,24.046875,3,24L15,24Q16.2656,24.046875,17.1094,24.890625Q17.9531,25.73438,18,27L18,40.5L12,40.5Q11.3438,40.5,10.9219,40.9219Q10.5,41.3438,10.5,42L10.5,48L3,48ZM12,48L12,42L12,48L12,42L18,42L12,48ZM5.25,36L12.75,36L5.25,36L12.75,36Q13.4531,35.9531,13.5,35.25Q13.4531,34.5469,12.75,34.5L5.25,34.5Q4.54688,34.5469,4.5,35.25Q4.54688,35.9531,5.25,36ZM5.25,33L12.75,33L5.25,33L12.75,33Q13.4531,32.95312,13.5,32.25Q13.4531,31.54688,12.75,31.5L5.25,31.5Q4.54688,31.54688,4.5,32.25Q4.54688,32.95312,5.25,33ZM5.25,30L12.75,30L5.25,30L12.75,30Q13.4531,29.95312,13.5,29.25Q13.4531,28.54688,12.75,28.5L5.25,28.5Q4.54688,28.54688,4.5,29.25Q4.54688,29.95312,5.25,30Z" fill="#3B82F6" fill-opacity="1" style="mix-blend-mode:passthrough"/></g></svg>