<svg xmlns="http://www.w3.org/2000/svg" xmlns:xlink="http://www.w3.org/1999/xlink" width="32" height="32" viewBox="0 0 32 32"><defs><style>.a{stroke:#707070;}.a,.c{fill:url(#a);}.b{clip-path:url(#b);}</style><linearGradient id="a" x1="0.229" x2="0.925" y2="1" gradientUnits="objectBoundingBox"><stop offset="0" stop-color="#477fff"/><stop offset="1" stop-color="#4c53e6"/></linearGradient><clipPath id="b"><rect class="a" width="32" height="32" transform="translate(0 -0.435)"/></clipPath></defs><g class="b" transform="translate(0 0.435)"><path class="c" d="M14.27,28.54A14.27,14.27,0,0,1,4.18,4.18,14.27,14.27,0,0,1,24.36,24.361,14.177,14.177,0,0,1,14.27,28.54ZM14.4,5.207a1.725,1.725,0,0,0-1.726,1.72v8.528a1.725,1.725,0,0,0,1.726,1.72h6.179a1.72,1.72,0,1,0,0-3.441H16.129V6.927A1.725,1.725,0,0,0,14.4,5.207Z" transform="translate(0.911 1.776)"/></g></svg>