<svg xmlns="http://www.w3.org/2000/svg" xmlns:xlink="http://www.w3.org/1999/xlink" width="32" height="32" viewBox="0 0 32 32"><defs><style>.a,.c{fill:#97a2bb;}.a{stroke:#707070;}.b{clip-path:url(#a);}</style><clipPath id="a"><rect class="a" width="32" height="32"/></clipPath></defs><g class="b"><path class="c" d="M121.554,104.45,131.93,111.9a3.891,3.891,0,0,1,1.622,3.161v12.01a3.891,3.891,0,0,1-3.891,3.891h-5.306V125.3a4.245,4.245,0,1,0-8.49,0v5.66h-5.306a3.891,3.891,0,0,1-3.891-3.891v-12.01a3.891,3.891,0,0,1,1.622-3.161l10.377-7.448a2.476,2.476,0,0,1,2.888,0Z" transform="translate(-104.163 -101.472)"/></g></svg>