<svg xmlns="http://www.w3.org/2000/svg" width="18.251" height="5" viewBox="0 0 18.251 5"><defs><style>.a{fill:#586a92;}</style></defs><path class="a" d="M259.25-4385.492a2.5,2.5,0,0,1,2.5-2.5,2.5,2.5,0,0,1,2.5,2.5,2.5,2.5,0,0,1-2.5,2.5A2.5,2.5,0,0,1,259.25-4385.492Zm-6.625,0a2.5,2.5,0,0,1,2.5-2.5,2.5,2.5,0,0,1,2.5,2.5,2.5,2.5,0,0,1-2.5,2.5A2.5,2.5,0,0,1,252.625-4385.492Zm-6.625,0a2.5,2.5,0,0,1,2.5-2.5,2.5,2.5,0,0,1,2.5,2.5,2.5,2.5,0,0,1-2.5,2.5A2.5,2.5,0,0,1,246-4385.492Z" transform="translate(-246 4387.992)"/></svg>