<svg xmlns="http://www.w3.org/2000/svg" xmlns:xlink="http://www.w3.org/1999/xlink" width="32" height="32" viewBox="0 0 32 32"><defs><style>.a{stroke:#707070;}.a,.c{fill:url(#a);}.b{clip-path:url(#b);}</style><linearGradient id="a" x1="0.229" x2="0.925" y2="1" gradientUnits="objectBoundingBox"><stop offset="0" stop-color="#477fff"/><stop offset="1" stop-color="#4c53e6"/></linearGradient><clipPath id="b"><rect class="a" width="32" height="32" transform="translate(0 -0.435)"/></clipPath></defs><g class="b" transform="translate(0 0.435)"><g transform="translate(1.288 -0.032)"><path class="c" d="M23.261,26.953H2.453A2.4,2.4,0,0,1,0,24.61V2.344A2.4,2.4,0,0,1,2.453,0H23.261a2.4,2.4,0,0,1,2.453,2.344V24.61A2.4,2.4,0,0,1,23.261,26.953ZM8.315,10.926h.169a13.743,13.743,0,0,0,2.53,5.6A8.175,8.175,0,0,1,8.687,17.85a11.741,11.741,0,0,1-2.548.731l-1.1.139.814.785a2.022,2.022,0,0,1,.649.923l.118.547.514-.153a15.443,15.443,0,0,0,5.473-2.841,12.676,12.676,0,0,0,3.128,1.865,22.035,22.035,0,0,0,2.574.859l.392.1.179-.377a3.09,3.09,0,0,1,.771-1.079l1.021-.834-1.288-.117a12.46,12.46,0,0,1-2.965-.725,8.046,8.046,0,0,1-2.3-1.221,13.653,13.653,0,0,0,1.34-2.3,13.115,13.115,0,0,0,1-3.153c.982,0,1.91.024,2.757.06l.527.022V8.7l-.527.022c-.955.04-1.775.06-2.436.06H14.116L13.9,8.391c-.546-1-1.05-1.875-1.5-2.607l-.3-.5-.439.369a2.506,2.506,0,0,1-.793.5l-.659.2.372.6c.3.486.645,1.1,1.03,1.822H8.66c-.7,0-1.5-.02-2.379-.06L5.751,8.7v2.426l.575-.082A14.485,14.485,0,0,1,8.315,10.926Zm4.192,4.058h0a8.9,8.9,0,0,1-1.816-3.99h3.527a10.78,10.78,0,0,1-1.709,3.99Z" transform="translate(0 4.701)"/><path class="c" d="M430.014,65.1H414.4v2.388h15.474V88.266h2.388V67.351A2.253,2.253,0,0,0,430.014,65.1Z" transform="translate(-402.362 -65.1)"/></g></g></svg>