<svg xmlns="http://www.w3.org/2000/svg" xmlns:xlink="http://www.w3.org/1999/xlink" width="32" height="32" viewBox="0 0 32 32"><defs><style>.a{fill:#586a92;stroke:#707070;}.b{clip-path:url(#a);}.c{fill:#97a2bb;}</style><clipPath id="a"><rect class="a" width="32" height="32" transform="translate(0 -0.435)"/></clipPath></defs><g class="b" transform="translate(0 0.435)"><path class="c" d="M10.819,28.045a2,2,0,0,1-2-2V23.719l-.522-.281-2,1.262a2,2,0,0,1-2.724-.661L.342,18.328A1.985,1.985,0,0,1,.1,16.607a1.89,1.89,0,0,1,1.061-1.122L3.045,14.3v-.581L1.163,12.54A1.8,1.8,0,0,1,.1,11.438,1.988,1.988,0,0,1,.342,9.7l3.165-5.55a1.9,1.9,0,0,1,1.162-.9,2.016,2.016,0,0,1,.516-.067,1.985,1.985,0,0,1,1.186.388L8.235,4.728l.561-.32V2a2.006,2.006,0,0,1,2-2h6.41a2.006,2.006,0,0,1,2,2v2.3l.521.281,2-1.261a2,2,0,0,1,2.724.681l3.165,5.569a2.012,2.012,0,0,1,.24,1.742,1.822,1.822,0,0,1-1.041,1.1l-1.9,1.182v.42a1.222,1.222,0,0,1-.557,1.187,13.51,13.51,0,0,1-2.649.284,7.839,7.839,0,0,0-7.693-9.3h-.031A7.749,7.749,0,0,0,8.478,8.476a7.84,7.84,0,0,0,7.707,13.075l-.939,5.273a1.223,1.223,0,0,1-1.222,1.221Zm9.638-.089a1.114,1.114,0,1,1,0-2.217H27.77a1.114,1.114,0,1,1,0,2.217Zm0-3.87a1.114,1.114,0,1,1,0-2.217H27.77a1.114,1.114,0,1,1,0,2.217Zm0-3.87a1.114,1.114,0,1,1,0-2.218H27.77a1.114,1.114,0,1,1,0,2.218ZM8.645,14.052a5.333,5.333,0,1,1,5.333,5.333A5.334,5.334,0,0,1,8.645,14.052Zm3.555,0a1.778,1.778,0,1,0,1.778-1.777A1.78,1.78,0,0,0,12.2,14.052Z" transform="translate(1.43 2.477)"/></g></svg>