<svg xmlns="http://www.w3.org/2000/svg" xmlns:xlink="http://www.w3.org/1999/xlink" width="420" height="357" viewBox="0 0 420 357"><defs><style>.a{opacity:0.7;}.b{fill:url(#a);}.c{opacity:0.45;fill:url(#b);}</style><linearGradient id="a" x1="0.5" y1="1" x2="0.5" gradientUnits="objectBoundingBox"><stop offset="0" stop-color="#fff"/><stop offset="0.418" stop-color="#fff" stop-opacity="0.898"/><stop offset="1" stop-color="#fff" stop-opacity="0"/></linearGradient><linearGradient id="b" x1="0.5" y1="1" x2="0.5" gradientUnits="objectBoundingBox"><stop offset="0" stop-color="#477fff"/><stop offset="1" stop-color="#f5f5f5" stop-opacity="0"/></linearGradient></defs><g class="a" transform="translate(420 357) rotate(180)"><rect class="b" width="420" height="357" rx="20"/><path class="c" d="M20,354.4a17.235,17.235,0,0,1-12.728-5.7A20.137,20.137,0,0,1,2,334.949V21.61A20.137,20.137,0,0,1,7.272,7.857,17.235,17.235,0,0,1,20,2.161H400a17.235,17.235,0,0,1,12.728,5.7A20.137,20.137,0,0,1,418,21.61V334.949a20.137,20.137,0,0,1-5.272,13.752A17.235,17.235,0,0,1,400,354.4H20m0,2.161H400c11.046,0,20-9.675,20-21.61V21.61C420,9.675,411.046,0,400,0H20C8.954,0,0,9.675,0,21.61V334.949C0,346.883,8.954,356.558,20,356.558Z" transform="translate(0 0)"/></g></svg>