<svg xmlns="http://www.w3.org/2000/svg" width="18" height="18" viewBox="0 0 18 18"><defs><style>.a{fill:#fff;}</style></defs><path class="a" d="M6.291,16.7V13.137a2.025,2.025,0,0,1,.09-.6.846.846,0,0,1,.345-.663c.041-.051.084-.1.129-.147L12.423,5.94a.8.8,0,0,1,1.158,0,.858.858,0,0,1,0,1.18L8.765,12.127l5.9,1.63a.055.055,0,0,0,.029,0,.159.159,0,0,0,.011-.04L16.276,2.038,2.165,10.366l2.43.663a.838.838,0,0,1,.559,1.015.811.811,0,0,1-.977.606l-.007,0-2.948-.8A1.48,1.48,0,0,1,0,10.6v-.174A1.639,1.639,0,0,1,.884,9.19L16.075.225A1.494,1.494,0,0,1,16.837,0h0a1.106,1.106,0,0,1,.85.384,1.465,1.465,0,0,1,.294,1.179L16.317,13.946a1.66,1.66,0,0,1-1.627,1.489,1.689,1.689,0,0,1-.448-.061L7.919,13.629v2.4l2.12-1.214a.793.793,0,0,1,.808-.049.851.851,0,0,1,.092,1.447l-.014.009L8.238,17.784A1.216,1.216,0,0,1,7.55,18,1.281,1.281,0,0,1,6.291,16.7Z"/></svg>