<svg xmlns="http://www.w3.org/2000/svg" viewBox="0 0 18 18">
  <g>
    <path
      d="M11.933 4.975a1.158 1.158 0 11-1.024 1.7H7.148v5.2a1.163 1.163 0 01.426.478h6.082a1.158 1.158 0 110 1.235H7.427a1.164 1.164 0 01-.279.246v2.4h3.98a1.158 1.158 0 110 1.235h-3.98a1.235 1.235 0 01-1.235-1.235v-2.4a1.158 1.158 0 010-1.959v-5.2A1.235 1.235 0 017.148 5.44h3.859a1.156 1.156 0 01.926-.465zM9 .71a4.043 4.043 0 013.208 1.58v.006h.022a4.051 4.051 0 013.982 3.985v.067A4.051 4.051 0 0112.23 10.4H8.447a1.235 1.235 0 011.235-1.235h2.481a2.818 2.818 0 000-5.635q-.1 0-.193.007h-.027a.617.617 0 01-.565-.277v-.008a2.813 2.813 0 00-4.74-.024l-.016.024a.618.618 0 01-.56.285h-.009q-.11-.009-.221-.009A2.819 2.819 0 003.646 8.12a1.824 1.824 0 00.458.387l.016.01a1.93 1.93 0 01.92 1.625v.021a2.542 2.542 0 01-1.115-.327l-.032-.017q-.09-.047-.178-.1a3.9 3.9 0 01-1.027-.822 4.054 4.054 0 013.078-6.6h.017v-.006A4.043 4.043 0 018.958.71z" />
  </g>
</svg>