<svg xmlns="http://www.w3.org/2000/svg" viewBox="0 0 18 18">
  <g>
    <path
      d="M15.149 10.364H9.696a2.048 2.048 0 01-2.045-2.045V2.866A2.048 2.048 0 019.696.821h5.453a2.047 2.047 0 012.045 2.045v5.453a2.047 2.047 0 01-2.045 2.045m-5.453-8.18a.683.683 0 00-.682.682v5.453a.683.683 0 00.682.682h5.453a.683.683 0 00.681-.682V2.866a.683.683 0 00-.681-.682H9.696zm-1.364 15H2.879a2.047 2.047 0 01-2.045-2.045V9.686a2.047 2.047 0 012.045-2.045.682.682 0 010 1.364.682.682 0 00-.681.682v5.453a.682.682 0 00.681.682h5.453a.683.683 0 00.682-.682.682.682 0 111.363 0 2.047 2.047 0 01-2.045 2.045" />
    <path
      d="M11.738 13.774H6.285a2.047 2.047 0 01-2.045-2.045V6.274a2.047 2.047 0 012.045-2.045.682.682 0 010 1.363.683.683 0 00-.682.682v5.454a.683.683 0 00.682.682h5.453a.682.682 0 00.681-.682.682.682 0 111.364 0 2.048 2.048 0 01-2.045 2.046" />
  </g>
</svg>