<svg xmlns="http://www.w3.org/2000/svg" viewBox="0 0 24 24">
  <defs>
    <clipPath id="prefix__a">
      <path transform="translate(-3.473 -4)" stroke="#707070" fill="#fff" d="M0 0h24v24H0z" />
    </clipPath>
    <style>
      .prefix__c {
        fill: #ffa000
      }
    </style>
  </defs>
  <g transform="translate(3.473 4)" clip-path="url(#prefix__a)">
    <path class="prefix__c"
      d="M19.167 17.666H-2.112a1.016 1.016 0 01-1.023-1.007V.134A1.015 1.015 0 01-2.112-.873h21.28A1.015 1.015 0 0120.191.134v16.527a1.016 1.016 0 01-1.024 1.005z" />
    <path class="prefix__c"
      d="M8.228 3.91H-3.136v-5.5a1.039 1.039 0 011-1.076h7.778a1.011 1.011 0 01.958.768l1.631 5.811z" />
    <path
      d="M17.421 16.471H.231a.986.986 0 01-.975-1v-12.9a.985.985 0 01.975-1h17.19a.986.986 0 01.975 1v12.9a.978.978 0 01-.975 1z"
      fill="#fff" />
    <path
      d="M19.167 18.668H-2.112a1.011 1.011 0 01-1.023-1V4.713a1.011 1.011 0 011.023-1h21.28a1.011 1.011 0 011.023 1V17.67a1.011 1.011 0 01-1.024.998z"
      fill="#ffca28" />
    <path
      d="M8.43 8.468H-.522a.883.883 0 010-1.762h8.931a.885.885 0 01.021 1.763zm-2.9 3.99H-.52a.853.853 0 01-.82-.882.841.841 0 01.82-.883h6.029a.854.854 0 01.819.883.837.837 0 01-.8.882z"
      fill="#fff8e1" />
  </g>
</svg>