<svg xmlns="http://www.w3.org/2000/svg" viewBox="0 0 18 18">
  <path
    d="M3.53 13.524A3.783 3.783 0 012.456 10.9V7.513L.429 6.141a.988.988 0 01-.272-1.35l.008-.012a.962.962 0 01.308-.292L7.687.14a.973.973 0 011.005 0l7.215 4.347a.988.988 0 01.47.94v3.032a.641.641 0 01-1.282.01V6.72l-1.167.791v3.363a3.779 3.779 0 01-1.074 2.65A6.252 6.252 0 018.191 15.4a6.251 6.251 0 01-4.661-1.876zm.206-2.65a2.5 2.5 0 00.709 1.751 4.951 4.951 0 003.745 1.489 4.95 4.95 0 003.744-1.488 2.494 2.494 0 00.71-1.73V8.382l-3.907 2.649a.976.976 0 01-1.094 0L3.736 8.382zM1.544 5.343l6.646 4.5 6.645-4.5L8.19 1.338z" />
</svg>