<svg xmlns="http://www.w3.org/2000/svg" viewBox="0 0 18 18">
  <g>
    <path
      d="M10.868 7.133h5.6a1.243 1.243 0 011.245 1.245v8.094a1.243 1.243 0 01-1.245 1.245H8.377a1.243 1.243 0 01-1.245-1.245v-5.6h-5.6A1.243 1.243 0 01.283 9.623V1.529A1.243 1.243 0 011.528.284h8.094a1.243 1.243 0 011.245 1.245zm0 1.245v1.245a1.243 1.243 0 01-1.245 1.245H8.377v4.982a.622.622 0 00.622.622h6.849a.622.622 0 00.622-.622V9.001a.622.622 0 00-.622-.622h-4.98zM1.529 2.151V9a.622.622 0 00.622.622H9A.622.622 0 009.622 9V2.152a.622.622 0 00-.621-.623h-6.85a.622.622 0 00-.623.622zm1.244 4.753v-3.13h2.193V2.463h.91c.125.018.187.035.187.054a.205.205 0 01-.027.08 1.445 1.445 0 00-.08.508v.669h2.327v3.05h-.99v-.4H5.957v2.3h-.963v-2.3H3.683v.482zm.909-2.381V5.7h1.311V4.524h-1.31zM7.294 5.7V4.524H5.957v1.177h1.338zm3.966 9.495h-1.015l1.793-4.949h1.258l1.738 4.95h-1.07l-.375-1.044h-1.953l-.374 1.044zm.643-1.873h1.418l-.669-2.113h-.027zm4.568-8.057h-1.245a2.49 2.49 0 00-2.49-2.49V1.529a3.736 3.736 0 013.735 3.736zM1.528 12.736h1.245a2.49 2.49 0 002.49 2.49v1.245a3.736 3.736 0 01-3.735-3.735z" />
  </g>
</svg>