<svg xmlns="http://www.w3.org/2000/svg" viewBox="0 0 30 30">
  <defs>
    <clipPath id="prefix__a">
      <path stroke="#707070" fill="#fff" d="M0 0h30v30H0z" />
    </clipPath>
  </defs>
  <g clip-path="url(#prefix__a)">
    <path
      d="M3.481 0h16.094l7.66 7.455V28.8a.843.843 0 01-.859.827h-22.9a.843.843 0 01-.854-.827V.827A.843.843 0 013.481 0z"
      fill="#ff4867" />
    <path d="M19.862 0v6.629a.827.827 0 00.827.827h6.546z" fill="#ff97a9" />
    <path
      d="M21.242 24.73c-1.56 0-2.958-2.519-3.694-4.157a26.935 26.935 0 00-3.928-1.234c-1.16.72-3.134 1.8-4.649 1.8a1.8 1.8 0 01-1.867-1.22 1.364 1.364 0 01.175-1.317 3.029 3.029 0 012.456-.775 17.291 17.291 0 013.679.486 23.3 23.3 0 002.661-2.065c-.366-1.633-.765-4.281.249-5.5a2 2 0 012.193-.514 1.917 1.917 0 011.516 1.317c.429 1.592-1.516 3.739-2.827 5a22.9 22.9 0 001.145 3.3c1.881.789 4.118 1.968 4.371 3.253a1.234 1.234 0 01-.429 1.22 1.721 1.721 0 01-1.053.408zm-1.4-2.777c.343.719.67 1.058.843 1.058a.19.19 0 00.117-.055c.064-.066.064-.11.053-.15-.036-.189-.327-.499-1.015-.853zm-9.9-2.909c-.549 0-.7.125-.745.183-.013.019-.052.075-.013.22.033.125.125.258.409.258a3.389 3.389 0 001.471-.528 5.614 5.614 0 00-1.127-.133zm5.371-.642c.328.086.668.2.983.311a7.957 7.957 0 01-.286-.86q-.343.281-.7.548zm2.317-6.2a.354.354 0 00-.272.116 2.406 2.406 0 00-.074 1.735c.636-.642.982-1.232.9-1.548-.012-.046-.049-.188-.346-.269a.737.737 0 00-.212-.036z"
      fill="#fff" />
  </g>
</svg>