<svg xmlns="http://www.w3.org/2000/svg" viewBox="0 0 18 18">
  <g>
    <path
      d="M5.804 6.362h-1.27a.594.594 0 01-.531-.636.594.594 0 01.531-.636h8.333a.594.594 0 01.53.636.593.593 0 01-.53.636zM1 7V1.447a.833.833 0 01.257-.281c.086-.058.172-.115.26-.166H7v1.121H2.317L2.279 7zM17 7V1.447a.833.833 0 00-.257-.281c-.086-.057-.172-.115-.26-.166H11v1.121h4.683L15.721 7zM1 11v5.553a.833.833 0 00.257.281c.086.057.172.115.26.166H7v-1.121H2.317L2.279 11zM17 10.999v5.553a.833.833 0 01-.257.281 4.548 4.548 0 01-.26.166H11v-1.121h4.683l.038-4.879zM4.634 12.726a.684.684 0 01-.636-.636.685.685 0 01.636-.636h5.3a.685.685 0 01.636.636.684.684 0 01-.636.636zM4.743 9.544a.709.709 0 01-.742-.636.71.71 0 01.742-.636h8.258a.709.709 0 01.742.636.923.923 0 01-.849.636z" />
  </g>
</svg>