<svg xmlns="http://www.w3.org/2000/svg" viewBox="0 0 30 30">
  <defs>
    <clipPath id="prefix__a">
      <path stroke="#707070" fill="#fff" d="M0 0h30v30H0z" />
    </clipPath>
  </defs>
  <g clip-path="url(#prefix__a)">
    <path
      d="M3.481 0h16.094l7.66 7.455V28.8a.843.843 0 01-.859.827h-22.9a.843.843 0 01-.854-.827V.827A.843.843 0 013.481 0z"
      fill="#4a8dff" />
    <path d="M19.862 0v6.629a.827.827 0 00.826.827h6.546z" fill="#e5f0ff" />
    <path
      d="M21.252 23.824a1.237 1.237 0 002.131-.78V10.745h-2.452v9.315l-4.874-5.039a1.276 1.276 0 00-1.811 0L9.372 20.06v-9.315H6.92v12.3a1.237 1.237 0 002.131.78l6.1-6.306z"
      fill="#fff" />
  </g>
</svg>